/* XPM */
static char *_a2706b7907b469f97aaa6191d168245wd0XzzCkaEQNLok0[] = {
/* columns rows colors chars-per-pixel */
"105 120 18 1 ",
"  c None",
". c #280916",
"X c #20121C",
"o c #29072F",
"O c #3B0E20",
"+ c #3B0F21",
"@ c #3E2530",
"# c #4A2B38",
"$ c #65253E",
"% c #312841",
"& c #3F3A57",
"* c #4D0C4F",
"= c #5A4772",
"- c #F22525",
"; c #BA5D22",
": c #CD7A26",
"> c #875368",
", c #A16891",
/* pixels */
"                                                                                                         ",
"                                                          ooooo                                          ",
"                                                 ooooo ooooooooo                                         ",
"                                               o**o*oooooooooooooo  o                                    ",
"                                           oooo*****oooooooo*****oooo                                    ",
"                                          ooo*********oooo***********oo                                  ",
"                                         ooo**********ooo*************oo                                 ",
"                                         o************oo****************o                                ",
"                                         *************oo******************                               ",
"                                        o*************o******************oo                              ",
"                                        oo************o********************o                             ",
"                                        oo************o***+*****************                             ",
"                                        ooo***********o#++.*****************o                            ",
"                                        oooo**********o@+..******************o                           ",
"                                        oooo*********oo++.#******************ooo                         ",
"                                        ooo**********oo+.###*****************ooo                         ",
"                                         oo******o**ooo+.###*****************ooo                         ",
"                                          *********oooo+..*@@#***************ooo                         ",
"                                         o********oooo++..**@@#**************ooo                         ",
"                                        oo*********ooo++.***@@#**************oo                          ",
"                                       oo**********o*o+++***@@@*************ooo                          ",
"                                       oo************++++***@@@*************ooo                          ",
"                                       o*************++++***@@@**************oo                          ",
"                                       o*************.++++*@@@***************oo                          ",
"                                      ooo************..++++@@@*************o*oo                          ",
"                                      oo**************..++++@***************oo                           ",
"                                      oo**************....+++***************oo                           ",
"                                      oo***************....+++**************oo                           ",
"                                       oo***************#....++*************o                            ",
"                                       oooo************##-....+************o                             ",
"                                       oooo***********##@-....+***********oo                             ",
"                                       oooo***********#@--....O**********ooo                             ",
"                                       oooo***********@@--O....*********ooo                              ",
"                                        oooo**********@@--O....*********ooo                              ",
"                                        oooooo********@@@-....*********oooo                              ",
"                                         oooooo*******@@OO....********ooooo                              ",
"                                           ooooo*******@O....*********oooo                               ",
"                                            ooooo******+.....*o***oo**oooo                               ",
"                                            oooooo*****....ooo**ooo**ooooo                               ",
"                                             ooooo******...ooooo*o*ooooooo                               ",
"                                              oooo*******.OO.oooo*ooooooo                                ",
"                                               ooo*****.OO.oooooooooooooo                                ",
"                                              ===oo******.OOoooooooooooo                                 ",
"                                             ===&&oo****.O.ooooooooo                                     ",
"                                            ===&&&&oo****..ooooo                                         ",
"                                            ==&&&&&%oo***+.oooo                                          ",
"                                           ==&&&&%%%% o**O.ooo                                           ",
"                                          ==&&&&%&;XX  ooO.oo                                            ",
"                                         ==&&&&%%;XXX    ..                                              ",
"                                       ===&&&%%%%:XX     +.                                              ",
"                                      ==&&&&%%%%:XXX     $.                                              ",
"                                     =&&&&&%%%%>XXX      +.                                              ",
"                                    =&&&&&%%%%%,XX       O.                                              ",
"                                   &&&&&&%%%%%%%X        +.                                              ",
"                                 &&&&&&&%%%%%%%%X        +.                                              ",
"                                &&&&&&&%%%%%%%%%         O.                                              ",
"                               &&&&&&&%%%%%%%%%%&&       +.                                              ",
"                              &&&&&&&%%%%%%%&&&%%&&      ..                                              ",
"                             &&&&&&&%%%%%%%%%&&&%%&&    +O.                                              ",
"                            &&&&&&&%%%%%%%%%%&&&%%%&&   OO.                                              ",
"                           &&&&&&&%%%%%%%%%%%&&&&%%&&&&&$,,                                              ",
"                          ;;&&&&&&%%%%%%%:;%%%&&&%%%&&&&,,,,                                             ",
"                         %%;;&&&&%%%%%%%:;%%%%&&&&%%%%%%>>,,,                                            ",
"                         %%;;;;&%%%%%%:;;%%%%%%&&&%%%%%>>>>,,                                            ",
"                        %%%%%;;::%%%%:;%%%  %%%%&&&%%%%>>>>>,                                            ",
"                        %%%%%;;:::%%:;%%%   %%%%&&&  %%%>>>>                                             ",
"                       ;::%%&%;;;::;;%%:    %%%%%&&&    $..                                              ",
"                       ;;::%&%%;;;;;::::     %%%%&&&&& ,,+.                                              ",
"                       %;;:%%%;;;;;;;::;      %%%%&&&&&,,,.                                              ",
"                       %%;:::;;&;;;;;;:::     %%%%%%&&&>>,,                                              ",
"                      %%&;;;;::%&&;;;;;:::     %%%%%%%&&>,,                                              ",
"                     &&&%&%;;::%%;;;;;;;::::     %%%%%%%>>+                                              ",
"                     &&&&%%;;;;:;%;;;;;;:::::      %%%%%>>.                                              ",
"                    &%&&&%%%;;;;:;%&&&&;;;;:::       %%%+..                                              ",
"                    &&%&&&%%%;;;;:%&&&&&&%;;;:;       %%+..                                              ",
"                   &&&&&&%%%&&;;;;:%%%%&&&;&%::%        O.                                               ",
"                   &&&&&%%&&&&%%;;;%%%%%%%;&&&&:        $.                                               ",
"                  &&%%%%%%%&&%%%%;;;;%%%:;%%&&&&        O.                                               ",
"                  &&&&%%%%&&%%%%%%;;;%%%:%%%%%%         O.                                               ",
"                 &&&%%%%%%&%%&&&%%%;;;:%;%%%%%%         ..                                               ",
"                 &&&&%%%%&%&&&&&&%%%%;;:::%%%%          ..                                               ",
"                &&&&%%%%%%%%%%%%%%&&%%;::::%%%          ..                                               ",
"                &&&%%%&%%%%%%%%%%&&%%%%%;::;%%          ..                                               ",
"               &%&%%%%%%%%%%%%%%&%%%%%%%%%%%%%          ..                                               ",
"               %%%%%%%%&&&&&&&&&%%%%%%%%%%%%%%          ..                                               ",
"              %%%%%%%%%%%%%%%%%%%%%%%%%%%%%%%           ..                                               ",
"              %%%%%%%%%%%%%%%%%%%%%%%%%%%%%%%           +.                                               ",
"                                                        ..                                               ",
"                                                                                                         ",
"                                                                                                         ",
"                                                                                                         ",
"                                                                                                         ",
"                                                                                                         ",
"                                                                                                         ",
"                                                                                                         ",
"                                                                                                         ",
"                                                                                                         ",
"                                                                                                         ",
"                                                                                                         ",
"                                                                                                         ",
"                                                                                                         ",
"                                                                                                         ",
"                                                                                                         ",
"                                                                                                         ",
"                                                                                                         ",
"                                                                                                         ",
"                                                                                                         ",
"                                                                                                         ",
"                                                                                                         ",
"                                                                                                         ",
"                                                                                                         ",
"                                                                                                         ",
"                                                                                                         ",
"                                                                                                         ",
"                                                                                                         ",
"                                                                                                         ",
"                                                                                                         ",
"                                                                                                         ",
"                                                                                                         ",
"                                                                                                         "
};
