/* XPM */
static char *arbre1667154271[] = {
/* columns rows colors chars-per-pixel */
"47 70 10 1 ",
"  c None",
". c #21110D",
"X c #082B0C",
"o c #342319",
"O c #171C31",
"+ c #503625",
"@ c #114517",
"# c #347B2C",
"$ c #755338",
"% c #53A03B",
/* pixels */
"                                               ",
"                                               ",
"                                               ",
"                                               ",
"                                               ",
"                                               ",
"                    XXXXX                      ",
"                   X#%%%#XX  XXXX              ",
"             XXXX X#%%%%%%#XX#%%%X             ",
"            X#%%#X#%%%%%%%%%#%%%%%XXXX         ",
"           X#%%%%%#%%%%%%%%%#%%%%%X%%#X        ",
"           X#%%%%%%#%%%%%%%%%%%%%%%%%%#X       ",
"        XXX@@%%%%%%%%%%%%%%%%%%%%%%%%%#X       ",
"       X##@%%#%%%%%%%%%%%%%%%%%%%%%%%%@@X      ",
"      X#%%#%%%%%%%%%%%%%%%%%%%%%%%%%%@%%X      ",
"      X%%%%%%%%%%%%%%%%%%%%%%%%%%%%%%%%%#X     ",
"     X#%%%%%%%%%%%%%%%%%%%%%%%#%%%%%%%%%#X     ",
"    X###%%%%%%%%%%%%%%##@#%#@#%%%%%%%%%%%#X    ",
"    X###%%%%%%%%%%%%%%%%#@@@##%%%%%%%%%%%#X    ",
"   X###%%%%%%%%%%%%%%%%%%%#@#%%%%%%%%%%%%%X    ",
"   X#%#%%%%%%%%%%%%%%%%%%%%#%%%%%%%%%%%%%%#X   ",
"   X%%%#%%@%%%%%%%%%%%%%%%%%%%%%%%%%%%%%%%%X   ",
"   X#%%##@@%%%%%%%%%%%%%%%%%%%%%%%%%%%%%%%%X   ",
"   X####@@#%%%%%%%%%%%%%%%%%%%%%%%%%%%%%%%#X   ",
"    X@@@@###%%%%%%%%%%%%%%%%%%%%%%%%%%%%%%X    ",
"   X@@#@#%%#%%%%%%%%%%%%%%%%%%%%%%%%%%%%%#X    ",
"  X@%%#@#%%%#%%%%%%%%%%%%%%%%%%%%%%%%%%%%%#X   ",
"  X#%%#@##%%%%%%%%%%%%%%%%%%%%%%%%%%%%%%%%#XX  ",
" X#%%##@@#%%%%%%%%%%%%%%%%%%%%%%%%%%%%#%%%%#X  ",
" X#%%%%#@#%%%%%%#%%%%%%%%%%%%%%%%%%%%##@%%%#X  ",
" X#%%%%%##%%%%%%#@%%%%%%%%%%%%%%%%%%%@@@@###X  ",
" X@#%%%%#@@%%%%###@@#%%%%##%%%%%%%%%%%@%%##X   ",
"  X@##%%%%@@%%#%%%%@@#%%###%%%%%%%%%%%#%%%#X   ",
"  X@@@@#%%%@@##%%%%%#@####%%%%%%%%%%%%%#%%##X  ",
"   X@#%@#%%###%%%%%%%###%%%%%%%%%%%%%%%#####X  ",
"   X@%%####@#%%%%%%%%%#%%%%%%%%%%%%%%%%####@X  ",
"  X@@%%%#@@@#%%#%%%%%##%%%%%%%%%%%%#%%@####@@X ",
"  X@#@##@@%#@###%%%%%###%%%%%%%%%%%%@@#####@@X ",
"  X#%%@@@%%%%##%%%%%#%%##%#%%@%%%#%%@%%###@@@X ",
"  X#%%#@@%%%%%#%%#%%%%%%%%%@@#%%#%###%%%###@@X ",
"  X@##@@@@%#%%#####%%%%%%%%%@###%%%###%%####@X ",
"   X@@@@#@@@#########%%%%%%%###%%%%######@##X  ",
"    X@@#%%@####@##%%#%%%%%%%#####%%@##@##@@@X  ",
"    X@X@%%#%###@@%%%#@%%%%%%%##@##@####@@@@X   ",
"     XXX@#%%%#%#@%%##@%%%%#%%#@@@@@####@@@X    ",
"      X@@@%%@%%%#####@#%%######@X@@##@@@XX     ",
"      X@@@@@#%%%#@##@#######@##@X@@@@@@@X      ",
"       X@@X@####@X@@@####@##@@@@XXX@@@@@X      ",
"        XXX@@@@@@XX@@###@@@@@@@XXXXXX@@X       ",
"          X@@@@@XXX@@@@@@X@@@@XXXXXXXXX        ",
"           XXXXXXXXX@@@@XXXXXXo.OOXXOOOO       ",
"            OO..oo+XXXXXooooooo.OOOOOOOOO      ",
"          OOO.$+o+++oo++oooo+oo+.OOOOOOOOO     ",
"         OOO.$$oo+o+o$$++oo++oo$.OOOOOOOOO     ",
"        OOOO.$.o$++o$$$$+o+$++o+$.OOOOOOOOO    ",
"       OOOOO..o$$$+o$$$$+++$$+oo+o.OOOOOOOO    ",
"       OOOOOO.$$+++.+$+++$+$$+oo$$o.OOOOOOO    ",
"       OOOOO.$$$$+o.$$$+$$$$$+oo+$$.OOOOOOO    ",
"       OOOOO.$$$$+.+$$$+$o$$$$+.o+$.OOOOOOO    ",
"       OOOOO.$$$+o.$$$$$oo+$+$$..++.OOOOOOO    ",
"       OOOOO.+++o.+$$$+$o.o+$$$$.OOOOOOOOOO    ",
"       OOOOOOOOOO.$$$+++o.o+$$$$$.OOOOOOOO     ",
"        OOOOOOOOO.$$$++o...++$$$+.OOOOOOOO     ",
"        OOOOOOOOO.+++++oOOO.+++++.OOOOOOO      ",
"         OOOOOOOOOOOOOOOOOOOOOOOOOOOOOOOO      ",
"         OOOOOOOOOOOOOOOOOOOOOOOOOOOOOOO       ",
"          OOOOOOOOOOOOOOOOOOOOOOOOOOOOO        ",
"           OOOOOOOOOOOOOOOOOOOOOOOOOOO         ",
"            OOOOOOOOOOOOOOOOOOOOOOOO           ",
"                OOOOOOOOOOO   OOOO             "
};
