/* XPM */
static char *ed4204857308467ba377886a4d6a61ccdAtKjoxUki7CFCq4[] = {
/* columns rows colors chars-per-pixel */
"64 64 7 1 ",
"  c #1D1923",
". c #2D2242",
"X c #3D3964",
"o c #59557F",
"O c #595580",
"+ c #7678A2",
"@ c #BBBFD5",
/* pixels */
"++++++++++++++++++++++++++++++++++++++++++++++++++++++++++++++++",
"++++++++++++++++++++++++++++++++++++++++++++++++++++++++++++++++",
"++++++++++++++++++++++++++++++++++++++++++++++++++++++++++++++++",
"++++++++++++++++++++++++++++++++++++++++++++++++++++++++++++++++",
"++++++++++++OOOO++++++++++++++++++++++++++++++++++++++++++++++++",
"+++++++++++++++o++++++++++++++++++++++++++++++++++++++++++++++++",
"+++++++++++++++o++++++++++++++++++++++++++++++++++++++++++++++++",
"+++++++++++++++o++++++++++++++++++++++++++++++++++++++++++++++++",
"+++++++++++++++o++++++++++++++++++++++++++++++++++++++++++++++++",
"+++++++++++++++o+++++++++++++...   ...++++++++++++++++++++++++++",
"+++++++++++++++o++++++++++. .O+++++++O. .+++++++++++++++++++++++",
"+++++++++++++++o+++++++++.OOX+++++++++XOO.++++++++++++++++++++++",
"+++++++++++++++o+++++++..+++.O+++++++O.+++..++++++++++++++++++++",
"+++++++++++++++X++++++.O+++OXOOOOOOOOOXO+++O.+++++++++++++++++++",
"+++++++++++++++X+++++.O+++OOOXOOOOOOOXOOO+++O.++++++++++++++++++",
"+++++++++++++++X++++.O.+OOOOO.XOOOOOX.OOOOO+.O.+++++++++++++++++",
"+++++++++++++++o+++.O++.XOOOX.........XOOOX.++O.++++++++++++++++",
"+++++++++++++++o+++.++OX XX..    O    ..XX XO++.++++++++++++++++",
"OOOOO++++++++++o++.O++OOX . O    O    O . XOO++O.+++++++++++++++",
"+++++++++++++++o++.++OOOX.  O    +    O  .XOOO++.+++++++++++++++",
"++OXXXOOOOOOOOOoO.O++OOX.   +    +    +   .XOO++O.++++++++++++++",
"+++++++++++++++X+.++OOO.O   +    +    +   O.OOO++.++++++++++++++",
"+++++++++++++++o+..XOOX.O   +    +    +   O.XOOX..+++++++++++++O",
"+++++++++++++++o.OOX... +   +    @    +   + ...XOO.++++++++++++O",
"+++++++++++++++o.++OOX. +   +    @    +   + .XOO++.++++++++++++O",
"+++++++++++++++o.+OOOX. +   @    @    @   + .XOOO+.++++++++++++O",
"+++++++++++++++o +OOOX. +   @    @    @   + .XOOO+ ++++++++++++O",
"+++++++++++++++o OOOOX. +   @    @    @   + .XOOOO ++++++++++++O",
"+++++++++++++++o XOOO.  @   @    @    @   @  .OOOX ++++++++++++O",
"++++++++++++++++ .XXX.  @   @    @    @   @  .XXX. +++++++++++++",
"++++++++++++++++ XOOX.  @   @    @    @   @  .XOOX +++++++++++++",
"++++++++++++++++.OOOO.  @   @    @    @   @  .OOOO.+++++++++++++",
"++++++++++++++++.OOOO.  @   @    @    @   @  .OOOO.+++++++++++++",
"++++++++++++++++.OOOO.  @   @    @    @   @  .OOOO +++++++++++++",
"++++++++++++++++.OOOO.  @   @    @    @   @  .OOOO +++++++++++++",
"++++++++++++++++.OOOO.  @   @    @    @   @  .OOOO +++++++++++++",
"++++++++++++++++ .XX..  @   @    @    @   @  ..XX. +++++++++++++",
"++++++++++++++++.OOOO.  @   @    @    @   @  .XOOO +++++++++++++",
"++++++++++++++++.OOOO.  @   @    @    @   @  .OOOO +++++++++++++",
"++++++++++++++++.OOOO.  @   @    @    @   @  .OOOO +++++++++++++",
"++++++++++++++++.OOOO.  @   @    @    @   @  .+OOO.+++++++++++++",
"++++++++++++++++.XOOO.  @   @    @    @   @  .OOOX.+++++++++++++",
"++++++++++++++++..XX.. .@. .@. . @ . .@. .@. ..XX. +++++++++++++",
"++++++++++++++++.XOOO.. @ . @ . .@. . @ . @ ..OOOO +++++++++++++",
"+++++++++++++++o.OOOO.X.@.X.@.X.X@X.X.@.X.@.X.OOOO +++++++++++++",
"+++++++++++++++X.OOOO.XX@XXX@XXXX@XXXX@XXX@XX.OOOO.+++++++++++++",
"+++++++++++++++X.OOOO.O.+.O.+.OO.+.OO.+.O.+.O.OOOO +++++++++++++",
"+++++++++++++++X.OOOO.OO.O++.++++.++++.++O.OO.OOOO.+++++++++++++",
"+++++++++++++++o.OOOO.+++++++++++++++++++++++.OOOO.+++++++++++++",
"+++++++++++++++oXOOOOXXXXOOOOOOOOOOOOOOOOOXXXXOOOX.+++++++++++++",
"+++OO++++++++++o+XXXX+++++++OOOXO+++++++++++++XXX.++++++++++++++",
"+++++++++++++++X+++++++++++++++O++++++++++++++++++++++++++++++++",
"+++OOOOOOOOOOOOXOXOOOOOOXOOOXXXXO+++++++++++++++++++++++++++++++",
"++++++++++++++++++++++++++++++++++++++++++++++++++++++++++++++++",
"+++++++++++++++++++++++++++++++O++++++++++++++++++++++++++++++++",
"+++++++++++++++++++++++++++++++O+++++++++++++++o++++++++++++++++",
"+++++++++++++++++++++++++++++++O+++++++++++++++o++++++++++++++++",
"+++++++++++++++++++++++++++++++O+++++++++++++++o++++++++++++++++",
"+++++++++++++++++++++++++++++++O+++++++++++++++o++++++++++++++++",
"+++++++++++++++++++++++++++++++O+++++++++++++++o++++++++++++++++",
"+++++++++++++++++++++++++++++++O+++++++++++++++X++++++++++++++++",
"+++++++++++++++++++++++++++++++O+++++++++++++++o++++++++++++++++",
"+++++++++++++++++++++++++++++++O+++++++++++++++o++++++++++++++++",
"+++++++++++++++++++++++++++++++O+++++++++++++++o++++++++++++++++"
};
