/* XPM */
static char *_5997f0fa655499095897d03ae9de915lNXVaIVpQzI17pwB[] = {
/* columns rows colors chars-per-pixel */
"64 64 231 2 ",
"   c #010101",
".  c #080908",
"X  c #130602",
"o  c #160904",
"O  c #1C0C06",
"+  c #1D0E09",
"@  c #08140C",
"#  c #16150B",
"$  c #1D110A",
"%  c #0C0C15",
"&  c #0D1D11",
"*  c #121212",
"=  c #1D1A19",
"-  c #230C04",
";  c #210C06",
":  c #2A0D05",
">  c #241206",
",  c #2B1807",
"<  c #25130C",
"1  c #2B150C",
"2  c #331B02",
"3  c #371B03",
"4  c #33140B",
"5  c #3B160B",
"6  c #341C0C",
"7  c #3C190E",
"8  c #271813",
"9  c #2C1A13",
"0  c #331C14",
"q  c #3B1D13",
"w  c #331E18",
"e  c #3D1F1A",
"r  c #0B2316",
"t  c #0C2619",
"y  c #0C2919",
"u  c #15281D",
"i  c #332203",
"p  c #3C2304",
"a  c #3B2609",
"s  c #2F2513",
"d  c #372613",
"f  c #3C2314",
"g  c #35221A",
"h  c #3C231A",
"j  c #1D1D2C",
"k  c #1B2C23",
"l  c #1D2927",
"z  c #1C3125",
"x  c #282729",
"c  c #372824",
"v  c #24352B",
"b  c #28382E",
"n  c #3B372B",
"m  c #292837",
"M  c #362F31",
"N  c #2B3B32",
"B  c #2D3A37",
"V  c #353635",
"C  c #34353B",
"Z  c #3C3B3C",
"A  c #43190D",
"S  c #481A0E",
"D  c #441D11",
"F  c #4A1E11",
"G  c #501F12",
"H  c #422405",
"J  c #442C05",
"K  c #4C2B04",
"L  c #472709",
"P  c #442C0C",
"I  c #532E06",
"U  c #522C0A",
"Y  c #4C3202",
"T  c #4B340C",
"R  c #4B350D",
"E  c #523504",
"W  c #5B3A07",
"Q  c #533209",
"!  c #5B340B",
"~  c #543B0D",
"^  c #442513",
"/  c #4D2113",
"(  c #442D11",
")  c #42251A",
"_  c #45291D",
"`  c #492A19",
"'  c #532315",
"]  c #5B2617",
"[  c #542618",
"{  c #592718",
"}  c #5C291A",
"|  c #493418",
" . c #563714",
".. c #65390A",
"X. c #683A08",
"o. c #6C3D0A",
"O. c #612A1A",
"+. c #452C26",
"@. c #4A2D22",
"#. c #4F3024",
"$. c #443729",
"%. c #523224",
"&. c #5B3C22",
"*. c #563628",
"=. c #53362D",
"-. c #473935",
";. c #423C3C",
":. c #633E2D",
">. c #2F4136",
",. c #34453B",
"<. c #5F430F",
"1. c #5B4419",
"2. c #674609",
"3. c #74420C",
"4. c #7A460D",
"5. c #7B550D",
"6. c #684A14",
"7. c #714E14",
"8. c #6F5119",
"9. c #795615",
"0. c #5B4629",
"q. c #4A4136",
"w. c #4F4A30",
"e. c #58443B",
"r. c #684626",
"t. c #734D2F",
"y. c #785528",
"u. c #6A4E3C",
"i. c #645537",
"p. c #7E5735",
"a. c #7F6124",
"s. c #393A47",
"d. c #383554",
"f. c #3D3964",
"g. c #473B47",
"h. c #3B4543",
"j. c #3B444D",
"k. c #3D4552",
"l. c #434344",
"z. c #484648",
"x. c #4B4C4C",
"c. c #44564C",
"v. c #56534F",
"b. c #464856",
"n. c #534B55",
"m. c #4A5555",
"M. c #525354",
"N. c #575658",
"B. c #5B5B5B",
"V. c #685049",
"C. c #655858",
"Z. c #4D6056",
"A. c #52665B",
"S. c #716457",
"D. c #494865",
"F. c #4D5468",
"G. c #545365",
"H. c #53546C",
"J. c #595969",
"K. c #534F77",
"L. c #575775",
"P. c #59557F",
"I. c #5C5D7C",
"U. c #625A6A",
"Y. c #615E75",
"T. c #5E6162",
"R. c #5D6479",
"E. c #636465",
"W. c #64656B",
"Q. c #6C6C6C",
"!. c #736A6F",
"~. c #6B6A76",
"^. c #63647C",
"/. c #766C79",
"(. c #737374",
"). c #747478",
"_. c #7B7B7B",
"`. c #844C0F",
"'. c #884F11",
"]. c #8C5912",
"[. c #885814",
"{. c #8B6316",
"}. c #8B641B",
"|. c #966B1A",
" X c #946B1C",
".X c #835B39",
"XX c #886628",
"oX c #9A7326",
"OX c #88673B",
"+X c #936F30",
"@X c #997639",
"#X c #A77A23",
"$X c #A67D36",
"%X c #8E5947",
"&X c #966C48",
"*X c #826E57",
"=X c #AA6E5A",
"-X c #AA7C60",
";X c #A8812D",
":X c #B5862E",
">X c #DA9F2F",
",X c #BA8969",
"<X c #A78778",
"1X c #CC9271",
"2X c #CA9778",
"3X c #595580",
"4X c #5D5F81",
"5X c #5F6282",
"6X c #636484",
"7X c #6A6B85",
"8X c #666788",
"9X c #6A6A8C",
"0X c #726E8C",
"qX c #78798A",
"wX c #6B6D93",
"eX c #6F7095",
"rX c #6E7098",
"tX c #727293",
"yX c #797B95",
"uX c #72749D",
"iX c #7577A0",
"pX c #7678A2",
"aX c #838384",
"sX c #8A8B8D",
"dX c #858698",
"fX c #969697",
"gX c #989DA5",
"hX c #A7A7A8",
"jX c #B3B3B5",
"kX c #BDBEC1",
"lX c #C7C7C8",
/* pixels */
"pXpXpXpXpXpXpXpXpXf.pXpXpXpXpXpXpXpXpXpXpXpXpXpXpXpXpXpXpXpXpXpXpXpXpXpXpXpXpXpXpXpXpXpXpXpXpXpXpXpXpXpXpXpXpXpXpXpXpXpXpXpXpXpX",
"pXpXpXpXpXpXpXpXpXf.pXpXpXpXpXpXpXpXpXpXpXpXpXpXpXpXpXpXuXuXpXpXpXpXpXpXpXpXpXpXpXpXpXpXpXpXpXpXpXpXpXpXpXpXpXpXpXpXpXpXpXpXpXpX",
"pXpXpXpXpXpXpXpXpXf.pXpXpXeXdXeXeXiXpXpXpXpXpXpXiXiX9Xz.c -.e.Y.uXpXpXpXpXpXpXpXpXpXpXpXpXpXpXpXpXpXpXpXpXpXpXpXpXpXpXpXpXpXpXpX",
"pXpXpXpXpXpXpXpXpXP.pXpXpXtXsXsX~.qXtXpXpXpXpXpXpXJ.h 1 + s ) @.e.^.pXpXpXpXpXpXpXpXpXpXpXpXpXpXpXpXpXpXpXpXpXpXpXpXpXpXpXpXpXpX",
"pXpXpXpXpXpXpXpXpXP.pXpXpXpXwXE.x._.sXtXpXpXiXuXn.7 0 ` ) s &.+.=.:.tXpXpXpXpXpXpXpXpXpXpXpXpXpXpXpXpXpXpXpXpXpXpXpXpXpXpXpXpXpX",
"pXpXpXpXpXpXpXpXpX3XpXpXpXpXeX~.l.M._.sXqXpXiX8Xf 0 _ $._ | @X` @.%.6XpXpXpXpXpXpXpXpXpXpXpXpXpXpXpXpXpXpXpXpXpXpXpXpXpXpXpXpXpX",
"pXpXpXpXpXpXpXpXpXP.tXpXpXuXl.J.M.x._.!.hXdXpX^.- ^ r.p.y.1.@Xy.&XOXC.yXpXpXpXpXpXpXpXpXpXpXpXpXpXpXpXpXpXpXpXpXpXpXpXpXpXpXpXpX",
"3X3X3X3X3X3X3X3XP.;.1.D.P.H.x.L.x.z.).(._.jXyXL. .y.a.p.t.&.@X.X.Xr.V.pXpXpXpXpXpXpXpXpXpXpXpXpXpXpXpXpXpXpXpXpXpXpXpXpXpXpXpXpX",
"pXpXpXpXpXpXpXpXpXx ~ OXC.C.c.m.m.s.Q._.aX_.kXN.T f 5 2 [ %X%X%Xr.%.U.pXpXpXpXpXpXpXpXpXpXpXpXpXpXpXpXpXpXpXpXpXpXpXpXpXpXpXpXpX",
"pXpXpXpXpXpXpXpXpX3X^.a.;X+Xi.H.I.s.^.(.sXaXgXfXf U %XC.hX<X,Xu._.<X0XpXpXpXpXpXpXpXpXpXpXpXpXpXpXpXpXpXpXpXpXpXpX3XpXpXpXpXpXpX",
"pXpXiXpXuXpXpXpXpXK.G.a 6.;XXXi.F.Z E.(.Q.).aXhXr. .=X2X<X2X1X-X,X1X!.uXpXpXpXpXpXpXpXpXpXpXpXpXpXpXpXpXpXpXpXpXpX3XpXpXpXpXpXpX",
"pXpXiXiX^.tXpXpX5XN.g.q.| <.;XoXOXZ M.R.uXwX~.sX*Xy..X,X&Xr.1X-X.X.Xw 7XpXpXpXpXpXpXpXpXpXpXpXpXpXpXpXpXpXpXpXpXpX3XpXpXpXpXpXpX",
"pXpXpXpXyXjX7X^.(.b.b.k.z.| 1.oX1.G.pXpXpXuXeXF.q.oX$XOX .X. . .H o.a G.iXiXiXpXpXpXpXpXpXpXpXpXpXpXpXpXpXpXpXpXpX3XpXpXpXpXpXpX",
"pXpXpXpXwXlXfXaX_.J.l.G.5XB d #  .V.I.F.J.j.B u & ` oX;Xr.K / &.L K ..n b.m.W.6XpXpXpXpXpXpXpXpXpXpXpXpXpXpXpXpXpX3XpXpXpXpXpXpX",
"pXpXpXpXpXgXhXaX_._.x.N.W.s.h.R.J.r.0.b ,.w.w.n $ 2 ^ 0.L I I K I S ! P h.m.,.j.pXpXpXpXpXpXpXpXpXpXpXpXpXpXpXpXpX3XpXpXpXpXpXpX",
"pXpXpXpXpXtXjXsX_.).M.N.6Xz.b.pXuXD.| 1.# a 2.7.R 3 K 3 3 I o.X.4.K I I u d 7 $.iXpXpXpXpXpXpXpXpXpXpXpXpXpXpXpXpX3XpXpXpXpXpXpX",
"pXpXpXpXpXpXdXlX(._.M.v.aXT.iXpXpXF.f , < 0 P 2.6.J K 2 3 I 4.`.`.! H ..^ S F t.!.pXpXpXpXpXpXpXpXpXpXpXpXpXpXpXpXpXpXpXpXpXpXpX",
"pXpXpXpXpXpXiXdXhX(.B.x.qX7XpXpXiXn.6.7 - 4 g P 9.9.K 2 H X.'.`.'.o.J Q o.D F r.&X/.pXpXpXpXpXpXpXpXpXpXpXpXpXpXpXpXpXpXpXpXpXpX",
"pXpXpXpXpXpXpXuXqXhX!.l.Q.^.yXpXwX%.y.` - 1 h ( 5.9.K 2 p X.].'.].4.p I o.{ F &.OX&X/.pXpXpXpXpXpXpXpXpXpXpXpXpXpXpXpXpXpXpXpXpX",
"pXpXpXpXpXpXpXpXpX7XfXW.E._.6XpXn.r..Xf < 1 ) P J J p 2 p X.'.`.'.o.K I ! 5 F  ..X.Xu.U.iXpXpXpXpXpXpXpXpXpXpXpXpXpXpXpXpXpXpXpX",
"pXpXpXpXpXpXpXpXpXpXwX^.).aXqX5X%..X&.0 q 8 0 a i 0 2 2 2 ..4.4.`.`.! S ..S /  .r.` h w D.pXpXpXpXpXpXpXpXpXpXpXpXpXpXpXpXpXpXpX",
"pXpXpXpXpXpXpXpXpXpXpXpXiXtXyXn.6.t.1 f ) @.@.^ , < w , R 3.4.4.o.o.3.p W ' ^ R ^ 8 x l.G.iXpXpXpXpXpXpXpXpXpXpXpXpXpXpXpXpXpXpX",
"pXpXpXpXpXpXpXpXpXpXpXpXiXpXwXw #.q 1 ) _ @.%.[ ' 4 < w d X.`.4.3.3.`.K Q / ^ 2 = Z x.C.(.7XpXpXpXpXpXpXpXpXpXpXpXpXpXpXpXpXpXpX",
"pXpXpXpXpXpXpXpXpXpXpXpXpXpX6X= 8 - q h _ @.@.F ' ' 2 + 0 ^ 4.4.4.o.3.H 7 F -.M x z.W.(.aX/.iXpXpXpXpXpXpXpXpXpXpXpXpXpXpXpXpXpX",
"pXpXpXpXpXpXpXpXpXpXpXpXpXpXpXs.8 : q ) _ @.) F ' { D - > 0 ` W 4.X.o.Q 6 } g.s.9 c s.~.aXW.iXpXpXpXpXpXpXpXpXpXpXpXpXpXpXpXpXpX",
"pXpXpXpXpXpXpXpXpXpXpXpXpXpXiXs.V < f h _ @.q S ' ' D < 2 2 9 h ..4.X.! 7 { +.9 D _ _ $.M.8XpXpXpXpXpXpXpXpXpXpXpXpXpXpXpXpXpXpX",
"pXpXpXpXpXpXpXpXpXpXpXpXpXpXuXZ B.M 0 q ) ) 5 S ' F 0 w < > 2 1 h ! Q > 9 D D w h #.%.%.-.tXpXpXpXpXpXpXpXpXpXpXpXpXpXpXpXpXpXpX",
"pXpXpXpXpXpXpXpXpXpXpXpXpXpXiXH.x.T.M.;.x X 5 A F 7 w g w < o X $ h 6 9 w e 1 w +.#.#.:.V.uXpXpXpXpXpXpXpXpXpXpXpXpXpXpXpXpXpXpX",
"pXpXpXpXpXpXpXpXpXpXpXpXpXpXpXpXb.N z l .   : A 5 0 0 f g g 0 5 - < 0 9 w w 8 h @.%.%.:.6XpXpXpXpXpXpXpXpXpXpXpXpXpXpXpXpXpXpXpX",
"pXpXpXpXpXpXpXpXpXpXpXpXpXpXpXpXF.t y .   X - - < 9 w w 0 w D { S - < 0 9 6 < 0 _ %.*.G.pXpXpXpXpXpXpXpXpXpXpXpXpXpXpXpXpXpXpXpX",
"pXpXpXpXpXpXpXpXpXpXpXpXpXpXpXpX5Xy y @     X O + + - < < 4 ^ Q 8. .s $ 6 p q g 9 @.z.uXpXpXpXpXpXpXpXpXpXpXpXpXpXpXpXpXpXpXpXpX",
"pXpXpXpXpXpXpXpXpX3XpXpXpXpXpXpXwXk y &     + - < + $ $ < , 2.~ Q 8.9.< J 7 @.#._ c eXpXpXpXpXpXpXpXpXpXpXpXpXpXpXpXpXpXpXpXpXpX",
"pXpXpXpXpXpXpXpXpXf.pXpXpXpXpXpXiXB y r     o O < w g h g 6 Y P ~ f 9.6 W f _ @.*.U.pXpXpXpXpXpXpXpXpXpXpXpXpXpXpXpXpXpXpXpXpXpX",
"pXpXpXpXpXpXpXpXpXf.pXpXpXpXpXpXpXh.y y     O X X o $ 9 8 > J a R P <.< 6 <.R | %.g.9XuXpXpXpXpXpXpXpXpXpXpXpXpXpXpXpXpXpXpXpXpX",
"pXpXpXpXpXpXpXpXpXf.pXpXpXpXpXpXpXh.k y . X : 4 5 1 : : 1 : , p E J > 4 A D R ~ d w r.tXpXpXpXpXpXpXpXpXpXpXpXpXpXpXpXpXpXpXpXpX",
"pXpXpXpXpXpXpXpXpX3XpXpXpXpXpXpXuXB z y . X 5 5 [ F F ' D 6 F 4 = A 5 A ' { - B m.x | 9XpXpXpXpXpXpXpXpXpXpXpXpXpXpXpXpXpXpXpXpX",
"pXpXpXpXpXpXpXpXpX3XiXpXpXpXpXpXwXN z y @ X 5 5 ' F ' G 7 S ' 0 x / / [ F } 1 B R.rX9XpXpXpXpXpXpXpXpXpXpXpXpXpXpXpXpXpXpXpXpXpX",
"pXpXpXpXpXpXpXpXpX3XpXpXpXpXpXpX5XB z y . X 5 5 F ' ' D F / F +.x D ' } } O.5 v R.pXpXpXpXpXpXpXpXpXpXpXpXpXpXpXpXpXpXpXpXpXpXpX",
"pXpXpXpXpXpXpXpXpXf.pXpXiXiXiXiXF.,.k y . - 5 S ' ' ' F ] ' G z.C f O.} } } S c H.pXpXpXpXpXpXpXpXpXpXpXpXpXpXpXpXpXpXpXpXpXpXpX",
"3X3X3X3X3X3X3X3X3Xf.3Xf.3X3X3XK.h.h.k y @ - 5 S F ' ' ' ] ] F N.h.q O.} } } / g m.pXpXpXpXpXpXpXpXpXpXpXpXpXpXpXpXpXpXpXpXpXpXpX",
"pXpXpXpXpXpXpXpXpXpXpXpXpXpXpXR.A.,.u y # : 5 A ' ' ' { } O./ Q.x.q O.} } } [ q h.uXpXpXpXpXpXpXpXpXpXpXpXpXpXpXpXpXpXpXpXpXpXpX",
"pXpXpXpXpXpXpXpXpXpXpXpXpXpXiXm.Z.,.u y $ : 5 A / ' { { } } ) W.N.) } } } } { 5 V eXpXpXpXpXpXpXpXpXpXpXpXpXpXpXpXpXpXpXpXpXpXpX",
"pXpXpXpXpXpXpXpXpXpXpXpXpXpX5XZ.c.,.u r - : A A / ' { { } { n N.E.+.O.} } } { S x D.pXpXpXpXpXpXpXpXpXpXpXpXpXpXpXpXpXpXpXpXpXpX",
"pXpXpXpXpXpXpXpXpXpXpXpXpXpXJ.A.c.,.y r - : 5 A ' ' [ { } { l.V B.c O.} } { } F g b.pXpXpXpXpXpXpXpXpXpXpXpXpXpXpXpXpXpXpXpXpXpX",
"pXpXpXpXpXpXpXpXpXpXpXpXiXwXc.A.c.N t @ O - 5 S F [ ] ] } %.B.= B.$.} } O.} [ q 1 s.pXpXpXpXpXpXpXpXpXpXpXpXpXpXpXpXpXpXpXpXpXpX",
"pXpXpXpXpXpXpXpXpXpXpXpXpXb.c.Z.c.b t # X - 9 4 q F ' ] ] e.M.* x.;.] [ ` f 9 0 8 m pXpXpXpXpXpXpXpXpXpXpXpXpXpXpXpXpXpXpXpXpXpX",
"pXpXpXpXpXpXpXpXpXpXpXpXrXl c.Z.,.v t # + + 9 9 0 w q ) D C.V * Z g.h g w g w 9 < 8 9XpXpXpXpXpXpXpXpXpXpXpXpXpXpXpXpXpXpXpXpXpX",
"pXpXpXpXpXpXpXpXpXpXpXpXH.k N c.>.z t o - - < 9 9 w g h g W.l * x l.h g g w 0 q F 7 I.pXpXpXpXpXpXpXpXpXpXpXpXpXpXpXpXpXpXpXpXpX",
"pXpXpXpXpXpXpXpXpXpXpXpXj.v k B N y t @ o O 5 4 < 9 9 0 $.W.* * = Z c 0 g ^ [ } 5 M pXpXpXpXpXpXpXpXpXpXpXpXpXpXpXpXpXpXpXpXpXpX",
"pXpXpXpXpXpXpXpXpXpXpXuXk z z z b y @ = m = > 4 5 D q 0 v.M.. = * V ) [ ] } / 8 s.~.eXpXpXpXpXpXpXpXpXpXpXpXpXpXpXpXpXpXpXpXpXpX",
"pXpXpXpXpXpXpXpXpXpXpXwXk z b l k.F.5X$.( Z h.V 8 8 5 A Q.J.R.8X6Xs.` O./ 0 x B.Q.i.W.pXpXpXpXpXpXpXpXpXpXpXpXpXpXpXpXpXpXpXpXpX",
"pXpXpXpXpXpXpXpXpXpXpXiXh.z >.d.pXpXpX1.2.E $.M.T.M.Z v.aX9XpXpXpXb.g c M x.T.i.2.|.*XpXpXpXpXpXpXpXpXpXpXpXpXpXpXpXpXpXpXpXpXpX",
"pXpXpXpXpXpXpXpXpXpXpXpXrXk.b b 5XpXwX~ 5.[.2.2.0.B.W.(.).9XpXpXpXG.B.N.M.w.~ 2.[.#X@XiXpXpXpXpXpXpXpXpXpXpXpXpXpXpXpXpXpXpXpXpX",
"pXpXpXpXpXpXpXpXpXpXpXpXiXiX5Xk.h.uX8XJ 5.{.|.|.[.s.tX9X7XuXpXpXpX9X7X6XR Y W 5.{.9.e.pXpXpXpXpXpXpXpXpXpXpXpXpXpXpXpXpXpXpXpXpX",
"pXpXpXpXpXpXpXpXpXpXpXpXpXpXiXiXeXuXJ.i p <.8.oX[.d.P.3Xf.3X3XP.f.f.3XP.d Y E E R i ( V d.f.f.f.3X3X3XpXpXpXpXpXpXpXpXpXpXpXpXpX",
"pXpXpXpXpXpXpXpXpXpXpXpXpXpXpXiXpX6XJ Y i ~ 7.6.N.f.pXpXpXpXpXpXpXpXpXpXT.i p Y 2.{.7.R | S.tXpXpXpXpXpXpXpXpXpXpXpXpXpXpXpXpXpX",
"pXpXpXpXpXpXpXpXpXpXpXpXpXpXpXpXuX| 5.9.2.{.{.5.U.3XpXpXpXpXpXpXpXpXpXpXL.Y K W 2.5.|.}.}.;X@XtXpXpXpXpXpXpXpXpXpXpXpXpXpXpXpXpX",
"pXpXpXpXpXpXpXpXpXpXpXiXpXrXK.5XJ.E |.:X X X X|.V.K.rXuXuXuXwXwX9X9XwXwXJ.E Y E 2.5.[.{.|.|.:X/.pXpXpXpXpXpXpXpXpXpXpXpXpXpXpXpX",
"pXpXpXpXpXpXpXpXpXpXpXiXK.l   . s.W [.>X#XoX{.6.z.% . . % %             = s i i 9 d W 2.7.5.{.~.pXpXpXpXpXpXpXpXpXpXpXpXpXpXpXpX",
"pXpXpXpXpXpXpXpXpX3XpXiX3Xd.m D.rXq.Q XX9.w.-.b.m                   j l m m m m j j C M Z M.L.eXpXpXpXpXpXpXpXpXpXpXpXpXpXpXpXpX",
"pXpXpXpXpXpXpXpXpXpXpXpXiXpXpXpXpXpX8X4X9XuXuXwX5XD.8XwX5X5XP.L.P.5XpXpXiXiXiXpXpXP.uXiXpXpXpXpXpXpXpXpXpXpXpXpXpXpXpXpXpXpXpXpX",
"pXpXpXpXpXpXpXpXpXpXpXpXpXpXpXpXpXpXpXpXiXiXiXpXpX3XiXiXpXpXpXpXpXpXpXpXiXiXpXpXpX3XiXpXpXpXpXpXpXpXpXpXpXpXpXpXpXpXpXpXpXpXpXpX",
"pXpXpXpXpXpXpXpXpXpXpXpXpXpXpXpXpXpXpXpXiXpXpXpXpX3XiXpXpXpXpXpXpXpXpXpXpXpXpXpXpX3XpXpXpXpXpXpXpXpXpXpXpXpXpXpXpXpXpXpXpXpXpXpX",
"pXpXpXpXpXpXpXpXpX3XpXpXpXpXpXpXpXpXpXpXpXpXpXpXpX3XpXpXpXpXpXpXpXpXpXpXpXpXpXpXpX3XpXpXpXpXpXpXpXpXpXpXpXpXpXpXpXpXpXpXpXpXpXpX"
};
