/* XPM */
static char *a07ca665195040f6b1acf9ddd5ee6eecepSuJUexPUFDP4Jd[] = {
/* columns rows colors chars-per-pixel */
"64 64 126 2 ",
"   c #020000",
".  c #0B0201",
"X  c #130301",
"o  c #1B0502",
"O  c #1D0903",
"+  c #240501",
"@  c #2A0602",
"#  c #240902",
"$  c #2C0B03",
"%  c #330602",
"&  c #3A0601",
"*  c #340B02",
"=  c #3C0C02",
"-  c #3C1104",
";  c #1D1923",
":  c #430B02",
">  c #4C0C02",
",  c #500A02",
"<  c #5D0D02",
"1  c #451204",
"2  c #4B1304",
"3  c #521303",
"4  c #5D1203",
"5  c #531903",
"6  c #620D03",
"7  c #6B0F02",
"8  c #750E03",
"9  c #7E0B03",
"0  c #641304",
"q  c #6B1103",
"w  c #641C03",
"e  c #6D1B06",
"r  c #721202",
"t  c #751904",
"y  c #622105",
"u  c #772504",
"i  c #7E2704",
"p  c #2D2242",
"a  c #3D3964",
"s  c #59557F",
"d  c #8B1304",
"f  c #841C04",
"g  c #8D1B03",
"h  c #921E02",
"j  c #8B2003",
"k  c #852905",
"l  c #8B2C03",
"z  c #942203",
"x  c #9C2703",
"c  c #912A04",
"v  c #9B2A04",
"b  c #963304",
"n  c #9B3407",
"m  c #A32C03",
"M  c #AE2904",
"N  c #A33405",
"B  c #AB3303",
"V  c #AA3903",
"C  c #B13204",
"Z  c #B83204",
"A  c #B93C05",
"S  c #C63E04",
"D  c #CA3D05",
"F  c #D23D03",
"G  c #BB4205",
"H  c #B34B05",
"J  c #BE4803",
"K  c #C54503",
"L  c #C64A05",
"P  c #C35406",
"I  c #CB5405",
"U  c #CF5804",
"Y  c #C75E08",
"T  c #D45704",
"R  c #D45C06",
"E  c #DA5904",
"W  c #CF6307",
"Q  c #C96908",
"!  c #DA6404",
"~  c #DC6C05",
"^  c #D86F0F",
"/  c #C97B0D",
"(  c #DA7907",
")  c #D57808",
"_  c #D87514",
"`  c #E26404",
"'  c #EB6B03",
"]  c #E37305",
"[  c #E27E0A",
"{  c #E17F12",
"}  c #D9890E",
"|  c #D4920D",
" . c #DB8E13",
".. c #D8961D",
"X. c #E58902",
"o. c #EA8906",
"O. c #E58309",
"+. c #E48B0B",
"@. c #E88F0E",
"#. c #EB9707",
"$. c #EC9906",
"%. c #F4920C",
"&. c #F19B0E",
"*. c #E39213",
"=. c #EC9D11",
"-. c #F29512",
";. c #FB9510",
":. c #D9A31D",
">. c #EBA20D",
",. c #F2AB0F",
"<. c #EAA213",
"1. c #E9A61A",
"2. c #E6A91B",
"3. c #F4A712",
"4. c #EFBB19",
"5. c #F7B513",
"6. c #EDB926",
"7. c #F7B426",
"8. c #E8B632",
"9. c #F6C015",
"0. c #F6C01C",
"q. c #F4C819",
"w. c #F4C222",
"e. c #F9C447",
"r. c #595580",
"t. c #7678A2",
/* pixels */
"t.t.t.t.t.t.t.t.t.t.t.t.t.t.t.t.t.t.t.t.t.t.t.t.t.t.t.t.t.t.t.t.t.t.t.t.t.t.t.t.t.t.t.t.t.t.t.t.t.t.t.t.t.t.t.t.t.t.t.t.t.t.t.t.",
"t.t.t.t.t.t.t.t.t.t.t.t.t.t.t.t.t.t.t.t.t.t.t.t.t.t.t.t.t.t.t.t.t.t.t.t.t.t.t.t.t.t.t.t.t.t.t.t.t.t.t.t.t.t.t.t.t.t.t.t.t.t.t.t.",
"t.t.t.t.t.t.t.t.t.t.t.t.t.t.t.t.t.t.t.t.t.t.t.t.t.t.t.t.t.t.t.t.t.t.t.t.t.t.t.t.t.t.t.t.t.t.t.t.t.t.t.t.t.t.t.t.t.t.t.t.t.t.t.t.",
"t.t.t.t.t.t.t.t.t.t.t.t.t.t.r.r.r.r.t.t.t.t.t.t.t.t.t.t.t.t.t.t.t.t.t.t.t.t.t.t.t.t.t.t.t.t.t.t.t.t.t.t.t.t.t.t.t.t.t.t.t.t.t.t.",
"t.t.t.t.t.t.t.t.t.t.t.t.t.t.t.t.t.s t.t.t.t.t.t.t.t.t.t.t.t.t.t.t.t.t.t.t.t.t.t.t.t.t.t.t.t.t.t.t.t.t.t.t.t.t.t.t.t.t.t.t.t.t.t.",
"t.t.t.t.t.t.t.t.t.t.t.t.t.t.t.t.t.s t.t.t.t.t.t.t.t.t.t.t.t.t.t.t.t.t.t.t.t.t.t.t.t.t.t.t.t.t.t.t.t.t.t.t.t.t.t.t.t.t.t.t.t.t.t.",
"t.t.t.t.t.t.t.t.t.t.t.t.t.t.t.t.t.s t.t.t.t.t.t.t.t.t.t.t.t.t.t.t.t.t.t.t.t.t.t.t.t.t.t.t.t.t.t.t.t.t.t.t.t.t.t.t.t.t.t.t.t.t.t.",
"t.t.t.t.t.t.t.t.t.t.t.t.t.t.t.t.t.s t.t.t.t.t.t.t.t.t.t.t.t.t.t.t.t.t.t.t.t.t.t.t.t.t.t.t.t.t.t.t.t.t.t.t.t.t.t.t.t.t.t.t.t.t.t.",
"t.t.t.t.t.t.t.t.t.t.t.t.t.t.t.t.t.s t.t.t.t.t.t.t.t.t.t.t.t.t.t.t.t.t.t.t.t.t.t.t.t.t.t.t.t.t.t.t.t.t.t.t.t.t.t.t.t.t.t.t.t.t.t.",
"t.r.t.t.t.t.t.t.t.t.t.t.t.t.t.t.t.s t.t.t.t.t.t.t.t.t.t.t.t.t.t.t.t.t.t.t.t.t.t.t.t.t.t.t.t.t.t.t.t.t.t.t.t.t.t.t.t.t.t.t.t.t.t.",
"t.r.t.t.t.t.t.t.t.t.t.t.t.t.t.t.t.s t.t.t.t.t.t.t.t.t.t.t.t.t.t.t.t.t.t.t.t.t.t.t.t.t.t.t.t.t.t.t.t.t.t.t.t.t.t.t.t.t.t.t.t.t.t.",
"t.r.t.t.t.t.t.t.t.t.t.t.t.t.t.t.t.s t.t.t.t.t.t.t.t.t.t.t.t.t.t.t.t.t.t.t.t.t.t.t.t.t.t.t.t.t.t.t.t.t.t.t.t.t.t.t.t.t.t.t.t.t.t.",
"t.a t.t.t.t.t.t.t.t.t.t.t.t.t.t.t.a t.t.t.t.t.t.t.t.p p p ; ; ; p p p t.t.t.t.t.t.t.t.t.t.t.t.t.t.t.t.t.t.t.t.t.t.t.t.t.t.t.t.t.",
"t.a t.t.t.t.t.t.t.t.t.t.t.t.t.t.t.a t.t.t.t.t.p ; p r.t.t.t.t.t.t.t.r.p ; p t.t.t.t.t.t.t.t.t.t.t.t.t.t.t.t.t.t.t.t.t.t.t.t.t.t.",
"t.a t.t.t.t.t.t.t.t.t.t.t.t.t.t.t.a t.t.t.t.p r.r.a t.t.t.t.t.t.t.t.t.a r.r.p t.t.t.t.t.t.t.t.t.t.t.t.t.t.t.t.t.t.t.t.t.t.t.t.t.",
"t.r.t.t.t.t.t.t.t.t.t.t.t.t.t.t.t.s t.t.p p t.t.t.p r.t.t.t.t.t.t.t.r.p t.t.t.p p t.t.t.t.t.t.t.t.t.t.t.t.t.t.t.t.t.t.t.t.t.t.t.",
"t.r.t.t.t.t.t.t.t.t.t.t.t.t.t.t.t.s t.p r.t.t.t.r.a r.r.r.r.r.r.r.r.r.a r.t.t.t.r.p t.t.t.t.t.t.t.t.t.t.t.t.t.t.t.t.t.t.t.t.t.t.",
"t.t.r.r.r.r.r.t.t.t.t.t.t.t.t.t.t.s p r.t.t.t.r.r.r.a r.r.r.r.r.r.r.a r.r.r.t.t.t.r.p t.t.t.t.t.t.t.t.t.t.t.t.t.t.t.t.t.t.t.t.t.",
"t.t.t.t.t.t.t.t.t.t.t.t.t.t.t.t.t.p r.p t.r.r.r.r.r.p a r.r.r.r.r.a p r.r.r.r.r.t.p r.p t.t.t.t.t.t.t.t.t.t.t.t.t.t.t.t.t.t.t.t.",
"t.t.t.t.r.a a a r.r.r.r.r.r.r.r.p r.t.t.p a r.r.r.a p p p p p p p p p a r.r.r.a p t.t.r.p t.t.t.t.t.t.t.t.t.t.t.t.t.t.t.t.t.t.t.",
"t.t.t.t.t.t.t.t.t.t.t.t.t.t.t.t.p t.t.r.a ; a a p p ; ; ; ; ; ; ; ; ; p p a a ; a r.t.t.p t.t.t.t.t.t.t.t.t.t.t.t.t.t.t.t.t.t.t.",
"t.t.t.t.t.t.t.t.t.t.t.t.t.t.t.p r.t.t.r.r.a ; p ; ; ; ; ; ; ; ; ; ; ; ; ; p ; a r.r.t.t.r.p t.t.t.t.t.t.t.t.t.t.t.t.t.t.t.t.t.t.",
"t.t.t.t.t.t.t.t.t.t.t.t.t.t.t.p t.t.r.r.r.a p ; ; ; ; ; ; ; ; ; ; ; ; ; ; ; p a r.r.r.t.t.p t.t.t.t.t.t.t.t.t.t.t.t.t.t.t.t.t.t.",
"t.t.t.t.t.t.t.t.t.t.t.t.t.t.p r.t.t.r.r.a p ; ; ; ; ; ; ; ; ; ; ; ; ; ; ; ; ; p a r.r.t.t.r.p t.t.t.t.t.t.t.t.t.t.t.t.t.t.t.t.t.",
"t.t.t.t.t.t.t.t.t.t.t.t.t.t.p t.t.r.r.r.p ; ; ; ; ; ; ; ; ; ; ; ; ; ; ; ; ; ; ; p r.r.r.t.t.p t.t.t.t.t.t.t.t.t.t.t.t.t.t.t.t.t.",
"t.t.t.t.t.t.t.t.t.t.t.t.t.t.p p a r.r.a p ; ; ; ; ; ; ; ; ; ; ; ; ; ; ; ; ; ; ; p a r.r.a p p t.t.t.t.t.t.t.t.t.t.t.t.t.t.t.t.t.",
"t.t.t.t.t.t.t.t.t.t.t.t.t.p r.r.a p p p ;             .   . . .                   p p p a r.r.p t.t.t.t.t.t.t.t.t.t.t.t.t.t.t.t.",
"t.t.t.t.t.t.t.t.t.t.t.t.t.p t.t.r.r.a p ;           .   $ * : * o                 p a r.r.t.t.p t.t.t.t.t.t.t.t.t.t.t.t.t.t.t.t.",
"t.t.t.t.t.t.t.t.t.t.t.t.t.p t.r.r.r.a p ;           . + w w f g 4 X           .   p a r.r.r.t.p t.t.t.t.t.t.t.t.t.t.t.t.t.t.t.t.",
"t.t.t.t.t.t.t.t.t.t.t.t.t.; t.r.r.r.a p ;     .   O * > f N S m f > X .   . X .   p a r.r.r.t.; t.t.t.t.t.t.t.t.t.t.t.t.t.t.t.t.",
"t.t.t.t.t.t.t.t.t.t.t.t.t.; r.r.r.r.a p ;   . X . > d z G ~ T B f % 1 2 @ O # .   p a r.r.r.r.; t.t.t.t.t.t.t.t.t.t.t.t.t.t.t.t.",
"t.t.t.t.t.t.t.t.t.t.t.t.t.; a r.r.r.p ; ;   . $ = 0 A E ' o.@.[ L m N j : 2 * .   ; p r.r.r.a ; t.t.t.t.t.t.t.t.t.t.t.t.t.t.t.t.",
"t.t.t.t.t.t.t.t.t.t.t.t.t.; p a a a p ; ;   . 2 t M D [ ] >.9.,.] ! I C 6 2 1 O   ; p a a a p ; t.t.t.t.t.t.t.t.t.t.t.t.t.t.t.t.",
"t.t.t.t.t.t.t.t.t.t.t.t.t.; a r.r.a p ; ;     * z z v ( O.&.%.e.4.X.U m k 3 * .   ; p a r.r.a ; t.t.t.t.t.t.t.t.t.t.t.t.t.t.t.t.",
"t.t.t.t.t.t.t.t.t.t.t.t.t.p r.r.r.r.p ; ;     X & > b ! [ =.A 7.6.) W B u #       ; p r.r.r.r.p t.t.t.t.t.t.t.t.t.t.t.t.t.t.t.t.",
"t.t.t.t.t.t.t.t.t.t.t.t.t.p r.r.r.r.p ; ;   # 1 = l J ~ @.<.w &.3.^ R A b - X     ; p r.r.r.r.p t.t.t.t.t.t.t.t.t.t.t.t.t.t.t.t.",
"t.t.t.t.t.t.t.t.t.t.t.t.t.p r.r.r.r.p ; ;   @ u k V L ~ >.:.: 1.;.T T ^ L c =     ; p r.r.r.r.; t.t.t.t.t.t.t.t.t.t.t.t.t.t.t.t.",
"t.t.t.t.t.t.t.t.t.t.t.t.t.p r.r.r.r.p ; ;   . 5 l Z ` $.3...& 1.-.Q Q H P i o . . ; p s r.r.r.; t.t.t.t.t.t.t.t.t.t.t.t.t.t.t.t.",
"t.t.t.t.t.t.t.t.t.t.t.t.t.p r.r.r.r.p ; ;   . % q x R +.3. .: 2.1.| } b x r # . X ; p r.r.r.r.; t.t.t.t.t.t.t.t.t.t.t.t.t.t.t.t.",
"t.t.t.t.t.t.t.t.t.t.t.t.t.; p a a p p ; ; . . @ & 6 C { &.*.y 6.<.~ Y i f h = X X ; p p a a p ; t.t.t.t.t.t.t.t.t.t.t.t.t.t.t.t.",
"t.t.t.t.t.t.t.t.t.t.t.t.t.p r.r.r.r.p ; ; . . X @ 7 K _ 8.w./ q.@.v q 4 6 0 : +   ; p a r.r.r.; t.t.t.t.t.t.t.t.t.t.t.t.t.t.t.t.",
"t.t.t.t.t.t.t.t.t.t.t.t.t.p r.r.r.r.p ; ;   . O , 7 L B ^ 5.0.,.o.N % 6 > : % .   ; p r.r.r.r.; t.t.t.t.t.t.t.t.t.t.t.t.t.t.t.t.",
"t.t.t.t.t.t.t.t.t.t.t.t.t.p r.r.r.r.p ; ;   . - 3 7 d 9 E #.4.+.G e @ & @ % + .   ; p r.r.r.r.; t.t.t.t.t.t.t.t.t.t.t.t.t.t.t.t.",
"t.t.t.t.t.t.t.t.t.t.t.t.t.p r.r.r.r.p ; ;   . . @ > < 8 F ] O.I n 0 > % X . .     ; p t.r.r.r.p t.t.t.t.t.t.t.t.t.t.t.t.t.t.t.t.",
"t.t.t.t.t.t.t.t.t.t.t.t.t.p a r.r.r.p ; ;       . o @ & z S m g t 1 X . .       . ; p r.r.r.a p t.t.t.t.t.t.t.t.t.t.t.t.t.t.t.t.",
"t.t.t.t.t.t.t.t.t.t.t.t.t.p p a a p p ; p           X + % : 6 d > + .             ; p p a a p ; t.t.t.t.t.t.t.t.t.t.t.t.t.t.t.t.",
"t.t.t.t.t.t.t.t.t.t.t.t.t.p a r.r.r.p p ;             @ * o % : + .               p p r.r.r.r.; t.t.t.t.t.t.t.t.t.t.t.t.t.t.t.t.",
"t.t.t.t.t.t.t.t.t.t.t.t.t.p r.r.r.r.p a p             + #   . . .                 a p r.r.r.r.; t.t.t.t.t.t.t.t.t.t.t.t.t.t.t.t.",
"t.t.t.t.t.t.t.t.t.t.t.t.t.p r.r.r.r.p a a a a a a a a a a a a a a a a a a a a a a a p r.r.r.r.p t.t.t.t.t.t.t.t.t.t.t.t.t.t.t.t.",
"t.t.t.t.t.r.r.t.t.t.t.t.t.p r.r.r.r.p r.r.r.r.r.r.r.r.r.r.r.r.r.r.r.r.r.r.r.r.r.r.r.p r.r.r.r.; t.t.t.t.t.t.t.t.t.t.t.t.t.t.t.t.",
"t.t.t.t.t.t.t.t.t.t.t.t.t.p r.r.r.r.p r.r.r.r.t.t.t.t.t.t.t.t.t.t.t.t.t.t.t.r.r.r.r.p r.r.r.r.p t.t.t.t.t.t.t.t.t.t.t.t.t.t.t.t.",
"t.t.t.t.t.r.r.r.r.r.r.r.r.p r.r.r.r.p t.t.t.t.t.t.t.t.t.t.t.t.t.t.t.t.t.t.t.t.t.t.t.p r.r.r.r.p t.t.t.t.t.t.t.t.t.t.t.t.t.t.t.t.",
"t.t.t.t.t.t.t.t.t.t.t.t.t.a r.r.r.r.a a a a r.r.r.r.r.r.r.r.r.r.r.r.r.r.r.r.r.a a a a r.r.r.a p t.t.t.t.t.t.t.t.t.t.t.t.t.t.t.t.",
"t.t.t.t.t.t.t.t.t.t.t.t.t.t.a a a a t.t.t.t.t.t.t.t.t.t.t.t.t.t.t.r.t.t.t.t.t.t.t.t.t.a a a p t.t.t.t.t.t.t.t.t.t.t.t.t.t.t.t.t.",
"t.t.t.t.t.t.t.t.t.t.t.t.t.t.t.t.t.t.t.t.t.t.t.t.t.t.t.t.t.t.t.t.t.r.t.t.t.t.t.t.t.t.t.t.t.t.t.t.t.s t.t.t.t.t.t.t.t.t.t.t.t.t.t.",
"t.t.t.t.t.t.t.t.t.t.t.t.t.t.t.t.t.t.t.t.t.t.t.t.t.t.t.t.t.t.t.t.t.r.t.t.t.t.t.t.t.t.t.t.t.t.t.t.t.s t.t.t.t.t.t.t.t.t.t.t.t.t.t.",
"t.t.t.t.t.t.t.t.t.t.t.t.t.t.t.t.t.t.t.t.t.t.t.t.t.t.t.t.t.t.t.t.t.r.t.t.t.t.t.t.t.t.t.t.t.t.t.t.t.s t.t.t.t.t.t.t.t.t.t.t.t.t.t.",
"t.t.t.t.t.t.t.t.t.t.t.t.t.t.t.t.t.t.t.t.t.t.t.t.t.t.t.t.t.t.t.t.t.r.t.t.t.t.t.t.t.t.t.t.t.t.t.t.t.s t.t.t.t.t.t.t.t.t.t.t.t.t.t.",
"t.t.t.t.t.t.t.t.t.t.t.t.t.t.t.t.t.t.t.t.t.t.t.t.t.t.t.t.t.t.t.t.t.r.t.t.t.t.t.t.t.t.t.t.t.t.t.t.t.s t.t.t.t.t.t.t.t.t.t.t.t.t.t.",
"t.t.t.t.t.t.t.t.t.t.t.t.t.t.t.t.t.t.t.t.t.t.t.t.t.t.t.t.t.t.t.t.t.r.t.t.t.t.t.t.t.t.t.t.t.t.t.t.t.a t.t.t.t.t.t.t.t.t.t.t.t.t.t.",
"t.t.t.t.t.t.t.t.t.t.t.t.t.t.t.t.t.t.t.t.t.t.t.t.t.t.t.t.t.t.t.t.t.r.t.t.t.t.t.t.t.t.t.t.t.t.t.t.t.s t.t.t.t.t.t.t.t.t.t.t.t.t.t.",
"t.t.t.t.t.t.t.t.t.t.t.t.t.t.t.t.t.t.t.t.t.t.t.t.t.t.t.t.t.t.t.t.t.r.t.t.t.t.t.t.t.t.t.t.t.t.t.t.t.s t.t.t.t.t.t.t.t.t.t.t.t.t.t.",
"t.t.t.t.t.t.t.t.t.t.t.t.t.t.t.t.t.t.t.t.t.t.t.t.t.t.t.t.t.t.t.t.t.r.t.t.t.t.t.t.t.t.t.t.t.t.t.t.t.s t.t.t.t.t.t.t.t.t.t.t.t.t.t.",
"t.t.t.t.t.t.t.t.t.t.t.t.t.t.t.t.t.t.t.t.t.t.t.t.t.t.t.t.t.t.t.t.t.r.t.t.t.t.t.t.t.t.t.t.t.t.t.t.t.a t.t.t.t.t.t.t.t.t.t.t.t.t.t."
};
