/* XPM */
static char *ebbfd500321246ad8b65124d9944180eoiPYvxwfQwUnJ2Ws[] = {
/* columns rows colors chars-per-pixel */
"64 64 198 2 ",
"   c #270915",
".  c #2B0A16",
"X  c #2B0A1B",
"o  c #360C1D",
"O  c #390F1E",
"+  c #2C121D",
"@  c #33101B",
"#  c #392019",
"$  c #26072E",
"%  c #29072F",
"&  c #2C092B",
"*  c #350C26",
"=  c #390E23",
"-  c #340B2D",
";  c #341529",
":  c #3B172A",
">  c #3D1A2F",
",  c #2C0732",
"<  c #2D0B33",
"1  c #310836",
"2  c #3A0A31",
"3  c #340B3A",
"4  c #380A3D",
"5  c #271E38",
"6  c #371B31",
"7  c #31123A",
"8  c #3C2233",
"9  c #352932",
"0  c #3E2539",
"q  c #400F2B",
"w  c #400F3A",
"e  c #43173A",
"r  c #442433",
"t  c #43253A",
"y  c #442B3E",
"u  c #552A36",
"i  c #4B333C",
"p  c #543B3C",
"a  c #70272E",
"s  c #643D36",
"d  c #613C3A",
"f  c #66473A",
"g  c #774937",
"h  c #764D36",
"j  c #775839",
"k  c #3E0A41",
"l  c #381D43",
"z  c #2D2642",
"x  c #292645",
"c  c #352344",
"v  c #332A45",
"b  c #3B244B",
"n  c #362F4B",
"m  c #3F2C49",
"M  c #36314E",
"N  c #39324D",
"B  c #353254",
"V  c #3B3552",
"C  c #3F3956",
"Z  c #36365A",
"A  c #3D3B5B",
"S  c #3D3964",
"D  c #430B46",
"F  c #440C48",
"G  c #4A0B4C",
"H  c #491847",
"J  c #43144A",
"K  c #441C4E",
"L  c #4E0C51",
"P  c #510D54",
"I  c #4D1B56",
"U  c #531658",
"Y  c #541E5D",
"T  c #462A42",
"R  c #4B2A41",
"E  c #493541",
"W  c #48394A",
"Q  c #593A45",
"!  c #5C314A",
"~  c #523D4B",
"^  c #472957",
"/  c #423B55",
"(  c #4D3D54",
")  c #48375F",
"_  c #413C5A",
"`  c #4A395A",
"'  c #6B3C5C",
"]  c #582D66",
"[  c #4B3460",
"{  c #463F60",
"}  c #4B3B62",
"|  c #56396A",
" . c #543B6A",
".. c #5C3C71",
"X. c #50404D",
"o. c #45405E",
"O. c #4E415C",
"+. c #594A5E",
"@. c #6B444D",
"#. c #714D43",
"$. c #6B5040",
"%. c #785945",
"&. c #684B55",
"*. c #454263",
"=. c #4A4564",
"-. c #4C436C",
";. c #4D4A6A",
":. c #584963",
">. c #52456C",
",. c #5E4275",
"<. c #564973",
"1. c #5A4A76",
"2. c #5F4F7A",
"3. c #545274",
"4. c #5B5678",
"5. c #5A547E",
"6. c #7C506C",
"7. c #624579",
"8. c #634A7D",
"9. c #714F74",
"0. c #645374",
"q. c #61577A",
"w. c #645B7F",
"e. c #7C5472",
"r. c #891A25",
"t. c #951D23",
"y. c #D82023",
"u. c #884D1E",
"i. c #844829",
"p. c #934F2E",
"a. c #95542E",
"s. c #965B2F",
"d. c #875738",
"f. c #AE5F2A",
"g. c #B35B25",
"h. c #9B602E",
"j. c #966837",
"k. c #A7632D",
"l. c #B76524",
"z. c #B36B2B",
"x. c #B36938",
"c. c #A07338",
"v. c #B97B30",
"b. c #C66F25",
"n. c #C77326",
"m. c #C77527",
"M. c #C97832",
"N. c #855940",
"B. c #8E5D42",
"V. c #8A614D",
"C. c #9B6A56",
"Z. c #BC7B48",
"A. c #8E586E",
"S. c #895972",
"D. c #8C747D",
"F. c #967B7D",
"G. c #CE8326",
"H. c #D8962A",
"J. c #B79155",
"K. c #9B846F",
"L. c #C18643",
"P. c #595580",
"I. c #5E5B81",
"U. c #695486",
"Y. c #635D83",
"T. c #685983",
"R. c #645D8A",
"E. c #6B5E8C",
"W. c #696287",
"Q. c #66658C",
"!. c #6B638D",
"~. c #766B87",
"^. c #726389",
"/. c #7D758C",
"(. c #6E6492",
"). c #6E6A95",
"_. c #6B6C95",
"`. c #6D6D94",
"'. c #766E95",
"]. c #716E99",
"[. c #6F7099",
"{. c #71709B",
"}. c #73739D",
"|. c #7C7398",
" X c #7D7A9B",
".X c #7476A1",
"XX c #7576A1",
"oX c #7977A0",
"OX c #7678A2",
"+X c #7979A1",
"@X c #896483",
"#X c #906E98",
"$X c #857F92",
"%X c #8B7E90",
"&X c #81719A",
"*X c #A36689",
"=X c #8C8089",
"-X c #928686",
/* pixels */
"OXOXOXOXOXOXOXOXOXOXOXOXOXOXOXOXOXOXOXOXOXOXOXOXOXOXOXOXOXOXOXOXOXOXOXOXOXOXOXOXOXOXOXOXOXOXOXOXOXOXOXOXOXOXOXOXOXOXOXOXOXOXOXOX",
"OXOXOXOXOXOXOXOXOXOXOXOXOXOXOXOXOXOXOXOXOXOXOXOXOXOXOXOXOXOXOXOXOXOXOXOXOXOXOXOXOXOXOXOXOXOXOXOXOXOXOXOXOXOXOXOXOXOXOXOXOXOXOXOX",
"OXOXOXOXOXOXOXOXOXOXOXOXOXOXOXOXOXOXOXOXOXOXOXOXOXOXOXOXOXOXOXOXOXOXOXOXOXOXOXOXXXOXOXOXOXOXOXOXOXOXOXOXOXOXOXOXOXOXOXOXOXOXOXOX",
"OXOXOXOXOXOXOXOXOXOXOXOXOXOXOXOXOXOXOXOXOXOXOXOXOXOXOXOXOXOXOXOXOXOXOXOXOXOXOXOX).,.OX}.8.OXOXOXOXOXOXOXOXOXOXOXOXOXOXOXOXOXOXOX",
"OXOXOXOXOXOXOXOXOXOXOXOXOXOXOXOXOXOXOXOXOXOXOXOXOXOXOXOXOXOXOXOXOXOXOXOXOXOXOXOX..^ }.(.8.(.E.XXOXOXOXOXOXOXOXOXOXOXOXOXOXOXOXOX",
"OXOXOXOXOXOXOXOXOXOXOXOXOXOXOXOXOXOXOXOXOXOXOXOXOXOXOXOXOXOXOXOXOXOXOXOXOXOXOXOX).].OXOX}...).XXOXOXOXOXOXOXOXOXOXOXOXOXOXOXOXOX",
"OXOXOXOXOXOXOXOXOXOXOXOXOXOXOXOXOXOXOXOXOXOXOXOXOXOXOXOXOXOXOXOXOXOXOXOXOXOXOXOXOXOXOXOX[.R...E.OXOX}.OXOXOXOXOXOXOXOXOXOXOXOXOX",
"OXOXOXOXOXOXOXOXOXOXOXOXOXOXOXOXOXOXOXOXOXOXOXOXOXOXOXOXOXOXOXOXOXOXOXOXOXOX{.OXOXOXE.OX].^ I ).OX2.,.OXOXOXOXOXOXOXOXOXOXOXOXOX",
"OXOXOXOXOXOXOXOXOXOXOXOXOXOXOXOXOXOXOXOXOXOXOXOXOXOXOXOXOXOXOXOXOXOXOXOXOXE.U.OXOXOX..OX,.k 5.OXXX[ ] XXOXOXOXOXOXOXOXOXOXOXOXOX",
"OXOXOXOXOXOXOXOXOXOXOXOXOXOXOXOXOXOXOXOXOXOXOXOXOXOXOXOXOXOXOXOXOXOXOXOXOX).XXOXOXE.^ >.3 b OXOXXX) J .XOXOXOXOXOXOXOXOXOXOXOXOX",
"OXOXOXOXOXOXOXOXOXOXOXOXOXOXOXOXOXOXOXOXOXOXOXOXOXOXOXOXOXOXOXOXOXOXOXOXOXOXOXOXXXE.k , & c ^ !.OXP.3 .XOXOXOXOXOXOXOXOXOXOXOXOX",
"OXOXOXOXOXOXOXOXOXOXOXOXOXOXOXOXOXOXOXOXOXOXOXOXOXOXOXOXOXOXOXOXOXOXOXOXOXOXOXOXOXb , , , , < G 8.{.} XXOXOXOXOXOXOXOXOXOXOXOXOX",
"OXOXOXOXOXOXOXOXOXOXOXOXOXOXOXOXOXOXOXOXOXOXOXOXOXOXOXOXOXOXOXOXOXOXOXOXOXOXOXOX,.F D , % $ % k P !.XX^ T.XXXXOXOXOXOXOXOXOXOXOX",
"OXOXOXOXOXOXOXOXOXOXOXOXOXOXOXOXOXOXOXOXOXOXOXOXOXOXOXOXOXOXOXOXOXOXOXOXOXXXE.E.L L , 6 * & % < G  .XX4.k ,.OXOXOXOXOXOXOXOXOXOX",
"OXOXOXOXOXOXOXOXOXOXOXOXOXOXOXOXOXOXOXOXOXOXOXOXOXOXOXOXOXOXOXOXOXOXOXOX(.Y 8.] P k $ * @ 4 1 % < Y.XXXX4.} OXOXOXOXOXOXOXOXOXOX",
"OXOXOXOXOXOXOXOXOXOXOXOXOXOXOXOXOXOXOXOXOXOXOXOXOXOXOXOXOXOXOXOXOXOXOXOXY 7.!.P G , & o > y F & ,  .(.OX}.R.OXOXOXOXOXOXOXOXOXOX",
"OXOXOXOXOXOXOXOXOXOXOXOXOXOXOXOXOXOXOXOXOXOXOXOXOXOXOXOXOXOXOXOXOXOXOXOXK } [ P D $ = . e t e 1 , G U !.OXOXOXOXOXOXOXS OXOXOXOX",
"OXOXOXOXOXOXOXOXOXOXOXOXOXOXOXOXOXOXOXOXOXOXOXOXOXOXOXOXOXOXOXOXOXOXOXOX<.l | k 4 1 = = L t r G < G P k {.OXOXOXOXOXOXP.OXOXOXOX",
"OXOXOXOXOXOXOXOXOXOXOXOXOXOXOXOXOXOXOXOXOXOXOXOXOXOXOXOXOXOXOXOXOXOXOXOXR.1 , c & & O q P e 8 L 4 k F ^ }.OXOXOXOXOXOXP.OXOXOXOX",
"OXOXOXOXOXOXOXOXOXOXOXOXOXOXOXOXOXOXOXOXOXOXOXOXOXOXOXOXOXOXOXOXOXOXOXOXOXR.[ | < % . O 4 r H G , , b R.OXOXOXOXOXOXOXP.OXOXOXOX",
"OXOXOXOXOXOXOXOXOXOXOXOXOXOXOXOXOXOXOXOXOXOXOXOXOXOXOXOXOXOXOXOXOXOXOXOXOXOXU.P 1 D 2 . o q L D % 7 {.OXOXOXOXOXOXOXOXP.OXOXOXOX",
"OXOXOXOXOXOXOXOXOXOXOXOXOXOXOXOXOXOXOXOXOXOXOXOXOXOXOXOXOXOXOXOXOXOXOXOXOXOXY P 1 D H + . = L 3 , >.OXOXOXOXOXOXOXOXOXP.OXOXOXOX",
"OXOXOXOXOXOXOXOXOXOXOXOXOXOXOXOXOXOXOXOXOXOXOXOXOXOXOXOXOXOXOXOXOXOXOXOXOXOXl G & < u t.  . - , b {.OXOXOXOXOXOXOXOXOX5.OXOXOXOX",
"OXOXOXOXOXOXOXOXOXOXOXOXOXOXOXOXOXOXOXOXOXOXOXOXOXOXOXOXOXOXOXOXOXOXOXOXOXXXI.7 % & a y.  . & , 4.OXOXOXOXOXOXOXOXOXOXP.OXOXOXOX",
"OXOXOXOXOXOXOXOXOXOXOXP.OXOXOXOXOXOXOXOXOXOXOXOXOXOXOXOXOXOXOX}.].{.OXOXOXOXOX) , < r r..   $ 7 [.OXOXOXOXOXOXOXOXOXOXP.OXOXOXOX",
"OXOXOXOXOXOXOXOXOXOXOXOXOXOXOXOXOXOXOXOXOXOXOXOXOXOXOXOXOXOX].8.1.>.{.}.OXOXOXQ.< , : .   X , 4.OXOXOXOXOXOXOXOXOXOXOX5.OXOXOXOX",
"OXOXOXOXOXOXOXOXOXOXOXOXOXOXOXOXOXOXOXOXOXOXOXOXOXOXOXOXOXOX!.>.( ~ 3.OXOXOX}.OXQ.} ;   X l 4.OXOXOXOXOXOXOXOXOXOXOXOXP.OXOXOXOX",
"OXOXOXOXOXOXOXOXOXOXOXOXOXOXOXOXOXOXOXOXOXOXOXOXOXOXOXOXXXXXq._ k.i.) OXOXOXOXOXOX}.( ; >.}.XXOXOXOXOXOXOXOXOXOXOXOXOX5.OXOXOXOX",
"OXOXOXOXOXOXOXOXOXOXOXOXOXOXOXOXOXOXOXOXOXOXOXOXOXOXOX$X-X/.-.V z.u.5 XXOXOXOXOXOX[.( : w.OXOXOXOXOXOXOXOXOXOXOXOXOXOX5.OXOXOXOX",
"OXOXOXOXOXOXOXOXOXOXOXOXOXOXOXOXOXOXOXOXOXOXOXOXOXOXOX=XL.x.B.#.Q # 9 K.J. XOXOXOXOX4.> [.OXOXOXOXOXOXOXOXOXOXOXOXOXOXP.OXOXOXOX",
"OXOXOXOXOXOXOXOXOXOXOXOXOXOXOXOXOXOXOXOXOXOXOXOXOXOXOXOXI.&.m.M.&.x $.H.F.OXOXOXOXOXQ.8 OXOXOXOXOXOXOXOXOXOXOXOXP.P.P.5.P.P.P.P.",
"OXOXOXOXOXOXOXOXOXOXOXOXOXOXOXOXOXOXOXOXOXOXOXOXOXOXOX{.} n d l.G.c.c.m./.OXOXOXOXOXq.T OXOXOXOXOXOXOXOXOXOXOXOXP.P.P.P.OXOXOXOX",
"OXOXOXOXOXOXOXOXOXOXOXOXOXOXOXOXOXOXOXOXOXOXOXOXOXOXOX4.A ;.M h d.g.l.k.N w.}.XXXX+X' w.oXOXOXOXOXOXOXOXOXOXOXOXOXOXOXP.OXOXOXOX",
"OXOXOXOXOXOXOXOXOXOXOXOXOXOXOXOXOXOXOXOXOXOXOXOXOXXXQ._ V OXQ.i i.E ~ V.B V o.3.3.0.*X|.OXOXOXOXOXOXOXOXOXOXOXOXOXOXOX5.OXOXOXOX",
"OXOXOXOXOXOXOXOXOXOXOXOXOXOXOXOXOXOXOXOXOXOXOXOXOXXX=.C ;.XXOX*.@.B.A 3.[._ v V / / 6.'.OXOXOXOXOXOXOXOXOXOXOXOXOXOXOXP.OXOXOXOX",
"OXOXOXOXOXOXOXOXOXOXOXOXOXOXOXOXOXOXOXOXOXOXOXOXOX`.C M _.OXOX_.Z %.X.3.+X+X3.N n M > Y.OXOXOXOXOXOXOXOXOXOXOXOXOXOXOX5.OXOXOXOX",
"OXOXOXOXOXOXOXOXOXOXOXOXOXOXOXOXOXOXOXOXOXOXOXOXOX3._ N XXOXOX~.B #.j f =XOXOXXX[.:.t OXOXOXOXOXOXOXOXOXOXOXOXOXOXOXOXP.OXOXOXOX",
"OXOXOXOXOXOXOXOXOXOXOXOXOXOXOXOXOXOXOXOXOXOXOXOXOX3.M N XXXX Xv.j.~ v.d.%XOXOXOX+XW.R OXOXOXOXOXOXOXOXOXOXOXOXOXOXOXOX5.OXOXOXOX",
"OXOXOXOXOXOXOXOXOXOXOXOXOXOXOXOXOXOXOXOXOXOXOXOXXXw.9.N XXXXQ.p m.z.m.k.`.OXOXOXOXW.R OXOXOXOXOXOXOXOXOXOXOXOXOXOXOXOXOXOXOXOXOX",
"OXOXOXOXOXOXOXOXOXOXOXP.OXOXOXOXOXOXOXOXOXOXOXOXOX#X*Xe.XXOX;.B i n.G.z.:.OXOXOXOXW.8 OXOXOXOXOXOXOXOXOXOXOXOXOXOXOXOXOXOXOXOXOX",
"OXOXOXOXOXOXOXOXOXOXOXP.OXOXOXOXOXOXOXOXOXOXOXOXOX@XA.@X&XQ.A n p l.n.b.:.+XOXOXOX:.O.+XOXOXOXOXOXOXOXOXOXOXOXOXOXOXOXOXOXOXOXOX",
"OXOXOXOXOXOXOXOXOXOXOXP.OXOXOXOXOXOXOXOXOXOXOXOXOX~.S.oXD./ B z h E g.p.*.OXOXOXOX! Y.+XOXOXOXOXOXOXOXOXOXOXOXOXOXOXOXOXOXOXOXOX",
"OXOXOXOXOXOXOXOXOXOXOXP.OXOXOXOXOXOXOXOXOXOXOXOXOXOXOX XZ.k.h f d.A a.p =.XXOXOX+X! T.OXOXOXOXOXOXOXOXOXOXOXOXOXOXOXOXOXOXOXOXOX",
"OXOXOXOXOXOXOXOXOXOXOXP.OXOXOXOXOXOXOXOXOXOXOXOXOXOXOXOXQ.#.s.m.j._ d.Z ;.OXOXOXOXy w.OXOXOXOXOXOXOXOXOXOXOXOXOXOXOXOXOXOXOXOXOX",
"OXOXOXOXOXOXOXOXOXOXOXP.OXOXOXOXOXOXOXOXOXOXOXOXOXOXOXOX=.B v h.f ` N.B =.OXOXOXOX0 5.+X+XOXOXOXOXOXOXOXOXOXOXOXOXOXOXOXOXOXOXOX",
"OXOXOXOXOXOXOXOXP.P.P.S P.OXOXOXOXOXOXOXOXOXOXOXOXOXOXQ._ M h z.z W d.B =.OXOXOX^.R }.OXOXOXOXOXOXOXOXOXOXOXOXOXOXOXOXOXOXOXOXOX",
"OXOXOXOXOXOXOXOXOXOXOXP.OXOXOXOXOXOXOXOXOXOXOXOXOXOXQ.A A V m i.a.y g B =.OXOXOXT.t OXOXOXOXOXOXOXOXOXOXOXOXOXOXOXOXOXOXOXOXOXOX",
"P.P.P.P.S P.P.P.S S S S P.OXOXOXOXOXOXOXOXOXOXOXOX X;.o.C / B x d z.i x ;.OXOXOXw.0 OXOXOXOXOXOXOXOXOXOXOXOXOXOXOXOXOXOXOXOXOXOX",
"OXOXOXOXOXOXOXOXOXOXOXOXOXOXOXOXOXOXOXOXOXOXOXOXOXQ._ C / / M 9 z s s.p =.OXOXOXw.t OXOXOXOXOXOXOXOXOXOXOXOXOXOXOXOXOXOXOXOXOXOX",
"OXOXOXOXOXOXOXOXOXOXOXP.OXOXOXOXOXOXOXOXOXOXOXOXOX3.o.C V N N C V x d n.C.OXOXOXT 4.OXOXOXOXOXOXOXOXOXOXOXOXOXOXOXOXOXOXOXOXOXOX",
"OXOXOXOXOXOXOXOXOXOXOXP.OXOXOXOXOXOXOXOXOXOXOXOX`.C C M n N A C V V n i +.OXOXOX6 Y.OXOXOXOXOXOXOXOXOXOXOXOXOXOXOXOXOXOXOXOXOXOX",
"OXOXOXOXOXOXOXOXOXOXOXP.OXOXOXOXOXOXOXOXOXOXOXOXY.o.*.V *.=.=.=.o.*.*.*.5.OXOXOXO.Q.OXOXOXOXOXOXOXOXOXOXOXOXOXOXOXOXOXOXOXOXOXOX",
"OXOXOXOXOXOXOXOXOXOXOXP.OXOXOXOXOXOXOXOXOXOXOXOXOXOXOX5.OXOXOXOXOXOXOXOXOXOXOXOX XOXOXOXOXOXOXOXOXOXOXOXOXOXOXOXOXOXOXOXOXOXOXOX",
"OXOXOXOXOXOXOXOXOXOXOXP.OXOXOXOXOXOXOXOXOXOXOXOXOXOXOX5.OXOXOXOXOXOXOXOXOXOXOXOXOXOXOXOXOXOXOXOXOXOXOXOXOXOXOXOXOXOXOXOXOXOXOXOX",
"OXOXOXOXOXOXOXOXOXOXOXP.OXOXOXOXOXOXOXOXOXOXOXOXOXOXOX5.OXOXOXOXOXOXOXOXOXOXOXOXOXOXOXOXOXOXOXOXOXOXOXOXOXOXOXOXOXOXOXOXOXOXOXOX",
"OXOXOXOXOXOXOXOXOXOXOXP.OXOXOXOXOXOXOXOXOXOXOXOXOXOXOXS OXOXOXOXOXOXOXOXOXOXOXOXOXOXOXOXOXOXOXOXOXOXOXOXOXOXOXOXOXOXOXOXOXOXOXOX",
"OXOXOXOXOXOXOXOXOXOXOXP.OXOXOXOXOXOXOXOXOXOXOXOXOXOXOX5.OXOXOXOXOXOXOXOXOXOXOXOXOXOXOXOXOXOXOXOXOXOXOXOXOXOXOXOXOXOXOXOXOXOXOXOX",
"OXOXOXOXOXOXOXOXOXOXOXP.OXOXOXOXOXOXOXOXOXOXOXOXOXOXOXP.OXOXOXOXOXOXOXOXOXOXOXOXOXOXOXOXOXOXOXOXOXOXOXOXOXOXOXOXOXOXOXOXOXOXOXOX",
"OXOXOXOXOXOXOXOXOXOXOXP.OXOXOXOXOXOXOXOXOXOXOXOXOXOXOX5.OXOXOXOXOXOXOXOXOXOXOXOXOXOXOXOXOXOXOXOXOXOXOXOXOXOXOXOXOXOXOXOXOXOXOXOX",
"OXOXOXOXOXOXOXOXOXOXOXP.OXOXOXOXOXOXOXOXOXOXOXOXOXOXOXS OXOXOXOXOXOXOXOXOXOXOXOXOXOXOXOXOXOXOXOXOXOXOXOXOXOXOXOXOXOXOXOXOXOXOXOX",
"OXOXOXOXOXOXOXOXOXOXOXP.OXOXOXOXOXOXOXOXOXOXOXOXOXOXOXS OXOXOXOXOXOXOXOXOXOXOXOXOXOXOXOXOXOXOXOXOXOXOXOXOXOXOXOXOXOXOXOXOXOXOXOX",
"OXOXOXOXOXOXOXOXOXOXOXS OXOXOXOXOXOXOXOXOXOXOXOXOXOXOXS OXOXOXOXOXOXOXOXOXOXOXOXOXOXOXOXOXOXOXOXOXOXOXOXOXOXOXOXOXOXOXOXOXOXOXOX",
"OXOXOXOXOXOXOXOXOXOXOXS P.P.S P.P.P.S S P.P.S S S S S S P.S S S S S P.P.5.OXOXOXOXOXOXOXOXOXOXOXOXOXOXOXOXOXOXOXOXOXOXOXOXOXOXOX",
"OXOXOXOXOXOXOXOXOXOXOXS OXOXOXOXOXOXOXOXOXOXOXOXP.P.P.S OXOXOXOXOXOXOXOXOXOXOXOXOXOXOXOXOXOXOXOXOXOXOXOXOXOXOXOXOXOXOXOXOXOXOXOX"
};
