/* XPM */
static char *eca2fbb7349149c39c82b5263c6ae261AkVsUUFqBFKUf6Fe[] = {
/* columns rows colors chars-per-pixel */
"64 64 203 2 ",
"   c #180D13",
".  c #171217",
"X  c #15111A",
"o  c #1A151D",
"O  c #281619",
"+  c #2A1C1D",
"@  c #35191C",
"#  c #35231C",
"$  c #1A1622",
"%  c #1D1924",
"&  c #251824",
"*  c #221C2D",
"=  c #3D1F21",
"-  c #251E33",
";  c #291F3B",
":  c #262235",
">  c #2A223D",
",  c #2C283B",
"<  c #52361A",
"1  c #771F25",
"2  c #472425",
"3  c #51282A",
"4  c #493520",
"5  c #6B2326",
"6  c #732226",
"7  c #7D2525",
"8  c #6C372C",
"9  c #5B4822",
"0  c #67462B",
"q  c #79472D",
"w  c #74512D",
"e  c #7A453E",
"r  c #2D2343",
"t  c #2F2B46",
"y  c #302546",
"u  c #312749",
"i  c #332A4C",
"p  c #353345",
"a  c #362F53",
"s  c #382F52",
"d  c #373156",
"f  c #3A3254",
"g  c #3D3855",
"h  c #3A355C",
"j  c #3F385A",
"k  c #3B3660",
"l  c #3E3A64",
"z  c #40395D",
"x  c #433C62",
"c  c #413D68",
"v  c #664144",
"b  c #484166",
"n  c #4C4B65",
"m  c #45416C",
"M  c #4B466E",
"N  c #4E4C6C",
"B  c #504D6C",
"V  c #4A4671",
"C  c #4E4973",
"Z  c #534E73",
"A  c #524E79",
"S  c #56527D",
"D  c #59547F",
"F  c #B4361F",
"G  c #831C23",
"H  c #9C1D24",
"J  c #A31E24",
"K  c #AC1D22",
"L  c #B41E22",
"P  c #BE1E22",
"I  c #832325",
"U  c #8D2224",
"Y  c #932223",
"T  c #9D2123",
"R  c #97352A",
"E  c #A22223",
"W  c #AA2022",
"Q  c #A42C2B",
"!  c #B32022",
"~  c #BC2221",
"^  c #BB2B21",
"/  c #CD1F1F",
"(  c #DD1F1F",
")  c #CB241F",
"_  c #D4241E",
"`  c #DC281E",
"'  c #DA371F",
"]  c #E5281D",
"[  c #E32C1D",
"{  c #E7391D",
"}  c #C41E21",
"|  c #CA1F22",
" . c #D51D21",
".. c #C32220",
"X. c #C72627",
"o. c #D32622",
"O. c #CC3523",
"+. c #D83325",
"@. c #D93637",
"#. c #EF2D22",
"$. c #875319",
"%. c #AA511E",
"&. c #96681C",
"*. c #BA721E",
"=. c #8E572E",
"-. c #957833",
";. c #AF7C25",
":. c #A97738",
">. c #D24D1D",
",. c #E8471D",
"<. c #F3481D",
"1. c #E8551E",
"2. c #F3591D",
"3. c #CA631C",
"4. c #EC671E",
"5. c #F4681E",
"6. c #E77C1F",
"7. c #F4781D",
"8. c #C64723",
"9. c #D94B21",
"0. c #DC5427",
"q. c #D54735",
"w. c #E65623",
"e. c #EB4B35",
"r. c #C56E24",
"t. c #D66728",
"y. c #C67730",
"u. c #E47723",
"i. c #EB762F",
"p. c #F37826",
"a. c #A23E42",
"s. c #8B5049",
"d. c #B15A5C",
"f. c #A67446",
"g. c #AE6F51",
"h. c #895E60",
"j. c #866465",
"k. c #D45551",
"l. c #E54B44",
"z. c #EA5847",
"x. c #D66042",
"c. c #EF635C",
"v. c #EB7957",
"b. c #CA776A",
"n. c #D37369",
"m. c #EF7A68",
"M. c #BC8134",
"N. c #EE831C",
"B. c #FB991D",
"V. c #F9A31D",
"C. c #D29032",
"Z. c #F68727",
"A. c #F69826",
"S. c #E8813A",
"D. c #F49C37",
"F. c #D7A838",
"G. c #FAA829",
"H. c #FCAE33",
"J. c #FACC34",
"K. c #FBC73A",
"L. c #AB944A",
"P. c #CD8E51",
"I. c #C8885B",
"U. c #F68D48",
"Y. c #EC8C59",
"T. c #F6A948",
"R. c #F9B749",
"E. c #F7AA5A",
"W. c #F3B85E",
"Q. c #C9807D",
"!. c #D98377",
"~. c #EE966B",
"^. c #E89579",
"/. c #F39172",
"(. c #E6A86C",
"). c #F5AE69",
"_. c #F9B675",
"`. c #FACD48",
"'. c #FFD25D",
"]. c #FDC86A",
"[. c #F8D06E",
"{. c #FFCB75",
"}. c #595580",
"|. c #5C5A82",
" X c #5F5E88",
".X c #605E88",
"XX c #65648C",
"oX c #666691",
"OX c #6B6B94",
"+X c #6F6F99",
"@X c #6F719B",
"#X c #72739E",
"$X c #7476A0",
"%X c #7678A2",
"&X c #CF8C83",
"*X c #E58F83",
"=X c #EB998D",
"-X c #FAA984",
";X c #FEB885",
":X c #F7A594",
">X c #FDB892",
",X c #FFC687",
"<X c #FFCE92",
/* pixels */
"%X%X%X%X%X%X%X%X%X%X%X%X%X%X%X%X}.%X%X%X%X%X%X%X%X%X%X%X%X%X%X%X%X%X%X%X%X%X%X%X%X%X%X%X%X%X%X%X%X%X%X%X%X%X%X%X%X%X%X%X%X%X%X%X",
"%X%X%X%X%X%X%X%X%X%X%X%X%X%X%X%XD %X%X%X%X%X%X%X%X%X%X%X%X%X%X%X%X%X%X%X%X%X%X%X%X%X%X%X%X%X%X%X%X%X%X%X%X%X%X%X%X%X%X%X%X%X%X%X",
"%X%X%X%X%X%X%X%X%X%X%X%X%X%X%X%XD %X%X%X%X%X%X%X%X%X%X%X%X%X%X%X%X%X%X%X%X%X%X%X%X%X%X%X%X%X%X%X%X%X%X%X%X%X%X%X%X%X%X%X%X%X%X%X",
"}.%X%X%X%X%X%X%X%X%X%X%X%X%X%X%XD %X%X%X%X%X%X%X%X%X%X%X%X%X%X%X%X%X%X%X%X%X%X%X%X%X%X%X%X%X%X%X%X%X%X%X%X%X%X%X%X%X%X%X%X%X%X%X",
"}.%X%X%X%X%X%X%X%X%X%X%X%X%X%X%X}.%X%X%X%X%X%X%X%X%X%X%X%X%X%X%X%X%X%X%X%X%X%X%X%X%X%X%X%X%X%X%X%X%X%X%X%X%X%X%X%X%X%X%X%X%X%X%X",
"}.%X%X%X%X%X%X%X%X%X%X%X%X%X%X%XD %X%X%X%X%X%X%X%X%X%X%X%X%X%X%X%X%X%X%X%X%X%X%X%X%X%X%X%X%X%X%X%X%X%X%X%X%X%X%X%X%X%X%X%X%X%X%X",
"l %X%X%X%X%X%X%X%X%X%X%X%X%X%X%Xl %X%X%X%X%X%X%X%X%X%X%X%X%X%X%X%X%X%X%X%X%X%X%X%X%X%X%X%X%X%X%X%X%X%X%X%X%X%X%X%X%X%X%X%X%X%X%X",
"l $X%X%X%X%X%X%X%X%X%X%X%X%X%X%Xx %X%X%X%X%X%X%X%X%X|.z z g p p p z z z OX%X%X%X%X%X%X%X%X%X%X%X%X%X%X%X%X%X%X%X%X%X%X%X%X%X%X%X",
"l %X%X%X%X%X%X%X%X%X%X%X%X%X%X%Xx %X%X%X%X%X#XD n B M x Z Z n n n Z Z b N n B |.$X%X%X%X%X%X%X%X%X%X%X%X%X%X%X%X%X%X%X%X%X%X%X%X",
"}.%X%X%X%X%X%X%X%X%X%X%X%X%X%X%XD %X%X%X%X%XS n g d Z OX#X$X$X%X#X#X#XOXx f z b |.%X%X%X%X%X%X%X%X%X%X%X%X%X%X%X%X%X%X%X%X%X%X%X",
"}.$X$X%X%X%X%X%X%X%X%X%X%X%X%X%XD %X%X#XXXXXb S .XC S #X%X%X$X%X%X%X#X#Xm C XXS b XXXX%X%X%X%X%X%X%X%X%X%X%X%X%X%X%X%X%X%X%X%X%X",
"%X}.}.}.}.}.%X%X%X%X%X%X%X%X%X%XD %X%X+Xf i OX%X#XZ x .X#X#X#X#X#X#X#X|.f C $X$XXXi s +X%X%X%X%X%X%X%X%X%X%X%X%X%X%X%X%X%X%X%X%X",
"%X%X%X%X$X%X%X%X%X%X%X%X%X%X%X%XD %X+Xy S $X$X$X.XC V S }.}.}.}.}.D }.}.m V XX$X%X#XD i #X#X%X%X%X%X%X%X%X%X%X%X%X%X%X%X%X%X%X%X",
"%X%X%X}.l l l }.}.}.}.}.}.}.}.}.D A u S $X$X$X X}.}.C c D }.}.D }.}.}.l A }.}. X%X#X#XS y #X%X%X%X%X%X%X%X%X%X%X%X%X%X%X%X%X%X%X",
"%X%X%X%X%X%X%X%X%X%X%X%X%X%X$X%Xl y S r #X}.}.}.}.}.x i c }.}.D }.D x u C }.}.}.D |.#Xy D u #X#X%X%X%X%X%X%X%X%X%X%X%X%X%X%X%X%X",
"%X%X%X%X%X%X%X%X%X%X%X%X%X%X%XXXi D #X#Xi l S }.}.V a r r y y y u y r r h C }.}.S l u #X#XD i +X%X%X%X%X%X%X%X%X%X%X%X%X%X%X%X%X",
"%X%X%X%X%X%X%X%X%X%X%X%X%X%X%XXXs $X$X}.l * h l i r - % * % % % % % % % > r d l d - l |.%X#Xu +X%X%X%X%X%X%X%X%X%X%X%X%X%X%X%X%X",
"%X%X%X%X%X%X%X%X%X%X%X%X%X%XXXj S $X$X}.S h : r - % % % % % % $ % % % % * % ; > : k S |.%X%XS f OX#X%X%X%X%X%X%X%X%X%X%X%X%X%X%X",
"%X%X%X%X%X%X%X%X%X%X%X%X%X%XXXg #X$X.XD }.l > * % % % % % % % % % % % % $ % % - t c }.}..X$X@Xi XX#X%X%X%X%X%X%X%X%X%X%X%X%X%X%X",
"%X%X%X%X%X%X%X%X%X%X%X%X%X|.x D $X$X}.}.m i : % % % % % % % % % % % % % % % % % - i m }.}.$X$XA b OX%X%X%X%X%X%X%X%X%X%X%X%X%X%X",
"%X%X%X%X%X%X%X%X%X%X%X%X%XZ f OX$XoX}.}.d : % % % $ o o   @ 2 3 2 @   X o $ % % % > d }.}.oX$XOXg XX%X%X%X%X%X%X%X%X%X%X%X%X%X%X",
"%X%X%X%X%X%X%X%X%X%X%X%X%XZ f XXoX}.S A r % % % X X 2 s.b.=X>X:X=X*Xb.=.@ O $ % % % r A }.}.oXXXf XX%X%X%X%X%X%X%X%X%X%X%X%X%X%X",
"%X%X%X%X%X%X%X%X%X%X%X%X+XB d f l C C h > % % o + g.=X:X:X/./.*XQ.&X&X:X*Xv   $ % % > h V V l d s D +X%X%X%X%X%X%X%X%X%X%X%X%X%X",
"%X%X%X%X%X%X%X%X%X%X%X%XZ x |.S c u r r % $ o = n.>X=Xm.m.c.k.d.h.j.n.!.-X<Xd.O $ % % r u u l }.D g B %X%X%X%X%X%X%X%X%X%X%X%X%X",
"%X%X%X%X%X%X%X%X%X%X%X%XZ Z %X+XS }.k r % o # ^.;X/.n.k.z.l.a.v x s.k.k.n._.<Xb.O $ % r l }.}.OX#Xz Z %X%X%X%X%X%X%X%X%X%X%X%X%X",
"%X%X%X%X%X%X%X%X%X%X%X%XZ C @XD }.S k r % O I.>X).v.k.X.+.+.O.R 3 6 ^ d.k.v._.>Xf.X % r k }.}.}.#Xz Z %X%X%X%X%X%X%X%X%X%X%X%X%X",
"%X%X%X%X%X%X%X%X%X%X%X%Xn n @X}.}.S l r X s.,X).Y.e.Q E ' 2.A.S.1 2 I X.@.l.Y.).;X9 $ r l }.}.}.+Xp n %X%X%X%X%X%X%X%X%X%X%X%X%X",
"%X%X%X%X%X%X%X%X%X%X%X%Xn g }.}.}.}.k ; @ ^._.Y.q.^ Y F 7.V.F.y.q.5 U ! o.e.z.~.;XI.X t l }.}.}.D , n %X%X%X%X%X%X%X%X%X%X%X%X%X",
"%X%X%X%X%X%X%X%X%X%X%X%Xn t M }.}.S r $ e _.E.0.T Y G 9.B.B.C.y.Z.Y E W _ #.e.U.)._.4 % y S }.}.M : n %X%X%X%X%X%X%X%X%X%X%X%X%X",
"%X%X%X%X%X%X%X%X%X%X%X%Xn - i l c l > X g._.U.+.T U J 2.V.G.).C.D.U 7 Y J | X.x.].{.=.% r l c l i * n %X%X%X%X%X%X%X%X%X%X%X%X%X",
"%X%X%X%X%X%X%X%X%X%X%X%Xn r l S A k ; O (.).p.{ o./ K %.7.p.M.=.`.F I T U K | q.E.{.g.X r k A A x : n %X%X%X%X%X%X%X%X%X%X%X%X%X",
"%X%X%X%X%X%X%X%X%X%X%X%XB f C }.S V ; & ).T.w.o. .L U I H 1.%.w `.N.4.<.] o...e.E.[.P.  r V D D C y B %X%X%X%X%X%X%X%X%X%X%X%X%X",
"%X%X%X%X%X%X%X%X%X%X%X%XZ x }.}.S S > # ~.i.9...~ ) T 6 6 e.q 0 K.B.4.' / L W 0.R.[.P.. > S }.D }.f Z %X%X%X%X%X%X%X%X%X%X%X%X%X",
"%X%X%X%X%X%X%X%X%X%X%X%XA x }.}.}.S > % ~.A.5.' /  .E 6 1 w.-.9 D.^ 7 U K L L 9.T.{.P.. > S }.}.}.i Z %X%X%X%X%X%X%X%X%X%X%X%X%X",
"%X%X%X%X%X%X%X%X%X%X%X%XZ z }.}.}.S > X P.G.7.' P L L Y K p.M.9 S.G 5 W ) ) L ' D.[.f.X r S D D D , n %X%X%X%X%X%X%X%X%X%X%X%X%X",
"%X%X%X%X%X%X%X%X%X%X%X%XZ x }.}.S S , X M.H.4.[ / L P L Y e.L.8 t.1 6 H ~ E 6 8.R.[.w X r S D D D , n %X%X%X%X%X%X%X%X%X%X%X%X%X",
"%X%X%X%X%X%X%X%X%X%X%X%XZ z S S S S > o 9 H.u.w.[ ( _ ) K O.:.w 5.I Y L ! K U t.`.(.# % r A }.S S , n %X%X%X%X%X%X%X%X%X%X%X%X%X",
"%X%X%X%X%X%X%X%X%X%X%X%Xn - u l k r r $ o C.G.4.,.{ [ ` ~ ~ r.-.Z.7 3 I ! } 9.J.'.f.X % r r k l i % n %X%X%X%X%X%X%X%X%X%X%X%X%X",
"%X%X%X%X%X%X%X%X%X%X%X%XA z }.}.S S r $ o 9 J.A.<.<.[ ` ..L t.F.5.^ E 7 T _ 4.J.W.# $ % r k S }.}., n %X%X%X%X%X%X%X%X%X%X%X%X%X",
"%X%X%X%X%X%X%X%X%X%X%X%XZ x }.}.}.S r $ o . -.J.p.{ ' _ | K +.1._ X.` ) O.0.Z.R.0 X % % r A }.}.}.> n %X%X%X%X%X%X%X%X%X%X%X%X%X",
"%X%X%X%X%X%X%X%X%X%X%X%XZ x }.}.}.S r % % o o ;.V.1._ ` ( / _ _ ) ] [ } 9.G.D.=.X o % % r S }.}.D , n %X%X%X%X%X%X%X%X%X%X%X%X%X",
"%X%X%X%X%X%X%X%X%X%X%X%XZ x }.}.D S > % % % o . &.G.w.,.,.` [ ] [ { 4.w.0.u.8 . X % % % r OX}.}.D s Z %X%X%X%X%X%X%X%X%X%X%X%X%X",
"%X%X%X%X%X%X%X%X%X%X%X%XZ f V }.}.S r % % % & o . < r.A.7.<.<.<.2.5.B.6.%.+ X % % % % % r |.}.}.V i Z %X%X%X%X%X%X%X%X%X%X%X%X%X",
"%X%X%X%X}.D %X%X%X%X%X%XZ u h C V z > % - % : % * % . 2 $.%.>.w.3.*.$.# $ % % % * % : % r x V V h : B %X%X%X%X%X%X%X%X%X%X%X%X%X",
"%X%X%X%X%X$X%X%X%X%X%X%XA y a c c a r % : * ; * ; - * * $ $ o & o $ $ - - - - * : % > * r a l m h * n %X%X%X%X%X%X%X%X%X%X%X%X%X",
"%X%X%X%X}.}.}.}.}.D }.}.x f V }.}.}.r i * u * r ; ; ; - r - y * u * r - r ; > r : i % i r S }.}.D , n %X%X%X%X%X%X%X%X%X%X%X%X%X",
"%X%X%X%X%X%X%X%X%X%X%X%XA z }.D }.S r l u l u h i d d i k y l y l u l i h a d h a k y l r A }.}.}., n %X%X%X%X%X%X%X%X%X%X%X%X%X",
"%X%X%X%X%X%X%X%X%X%X%X%XZ x }.}.D S u l l l l l c l l l c l c c l l l l l l l l l l l l r S }.}.}.f Z %X%X%X%X%X%X%X%X%X%X%X%X%X",
"%X%X%X%X%X%X%X%X%X%X%X%XZ x }.}.}.A y }.}.}.}.}.}.}.|.}..X}.}.}.}.|.}.}.}.|.}.}.}.}.}.S r S }.}.}., n %X%X%X%X%X%X%X%X%X%X%X%X%X",
"%X%X%X%X%X%X%X%X%X%X%X%XZ x }.}.}.A y }.}.}.}.+X%X%X%X%X%X%X%X%X%X%X%X%X%X%X%X+X}.}.}.S r S }.}.}.f Z %X%X%X%X%X%X%X%X%X%X%X%X%X",
"%X%X%X%X%X%X%X%X%X%X%X%XZ x }.}.}.}.u $X$X%X$X%X%X%X%X%X%X%X%X%X%X%X%X%X%X%X%X%X$X$X%X@Xr A }.}.D d Z %X%X%X%X%X%X%X%X%X%X%X%X%X",
"%X%X%X%X%X%X%X%X%X%X%X%X}.C }.S }.}.l c l c }.}. X}.|.}.}.}.}.}.|.}.|.|.}.|.}.}.S l l l l }.}.}.m i Z %X%X%X%X%X%X%X%X%X%X%X%X%X",
"%X%X%X%X%X%X%X%X%X%X%X%X#X}.c c c c #X#X+X#X#X$X$X#X#X$X#X#X$X#X}.$X$X$X$X@X$X$X#X@X@X@X@Xm l l i  X#X%X%X%X%X%X%X%X%X%X%X%X%X%X",
"%X%X%X%X%X%X%X%X%X%X%X%X%X#XoXOXoX+X$X%X$X%X$X%X%X%X%X%X%X$X%X%X}.%X%X%X%X%X%X%X%X%X%X%X$XOXOXOXh #X%X%X%X%X%X%X%X%X%X%X%X%X%X%X",
"%X%X%X%X%X%X%X%X%X%X%X%X%X%X%X%X%X%X%X%X$X%X%X%X%X%X%X%X%X%X%X%X}.%X%X%X%X%X%X%X%X%X%X%X%X%X%X%XD %X%X%X%X%X%X%X%X%X%X%X%X%X%X%X",
"%X%X%X%X%X%X%X%X%X%X%X%X%X%X%X%X%X%X%X%X%X%X%X%X%X%X%X%X%X%X%X%X}.%X%X%X%X%X%X%X%X%X%X%X%X%X%X%XD %X%X%X%X%X%X%X%X%X%X%X%X%X%X%X",
"%X%X%X%X%X%X%X%X%X%X%X%X%X%X%X%X%X%X%X%X%X%X%X%X%X%X%X%X%X%X%X%X}.$X%X%X%X%X%X%X%X%X%X%X%X%X%X%XS %X%X%X%X%X%X%X%X%X%X%X%X%X%X%X",
"%X%X%X%X%X%X%X%X%X%X%X%X%X%X%X%X%X%X%X%X%X%X%X%X%X%X%X%X%X%X%X%X}.%X%X%X%X%X%X%X%X%X%X%X%X%X%X%Xl %X%X%X%X%X%X%X%X%X%X%X%X%X%X%X",
"%X%X%X%X%X%X%X%X%X%X%X%X%X%X%X%X%X%X%X%X%X%X%X%X%X%X%X%X%X%X%X%X}.%X%X%X%X%X%X%X%X%X%X%X%X%X%X%Xl %X%X%X%X%X%X%X%X%X%X%X%X%X%X%X",
"%X%X%X%X%X%X%X%X%X%X%X%X%X%X%X%X%X%X%X%X%X%X%X%X%X%X%X%X%X%X%X%Xl %X%X%X%X%X%X%X%X%X%X%X%X%X%X%Xl %X%X%X%X%X%X%X%X%X%X%X%X%X%X%X",
"%X%X%X%X%X%X%X%X%X%X%X%X%X%X%X%X%X%X%X%X%X%X%X%X%X%X%X%X%X%X%X%Xl }.}.l }.}.}.l l }.}.l l l l l l }.l l l l l }.}.D %X%X%X%X%X%X",
"%X%X%X%X%X%X%X%X%X%X%X%X%X%X%X%X%X%X%X%X%X%X%X%X%X%X%X%X%X%X%X%Xl %X$X%X$X%X%X%X%X%X$X%X$X}.}.}.l %X%X$X%X%X$X%X%X%X%X%X%X%X%X%X",
"%X%X%X%X%X%X%X%X%X%X%X%X%X%X%X%X%X%X%X%X%X%X%X%X%X%X%X%X%X%X%X$X}.$X%X%X%X%X%X%X%X%X%X%X$X%X%X%Xl %X%X%X%X%X%X%X%X%X%X%X%X%X%X%X",
"%X%X%X%X%X%X%X%X%X%X%X%X%X%X%X%X%X%X%X%X%X%X%X%X%X%X%X%X%X%X%X$X}.$X%X%X%X%X%X%X%X%X%X%X%X%X%X%Xl %X%X%X%X%X%X%X%X%X%X%X%X%X%X%X"
};
