/* XPM */
static char *_39537b5cd2a4340fb5826a0a4ddff1beN0v5wPDlcOQtiiJ[] = {
/* columns rows colors chars-per-pixel */
"64 64 228 2 ",
"   c #060100",
".  c #0D0400",
"X  c #0B0802",
"o  c #130700",
"O  c #150900",
"+  c #1C0C00",
"@  c #1D1205",
"#  c #230E00",
"$  c #2A0D01",
"%  c #380D00",
"&  c #241101",
"*  c #2B1401",
"=  c #2C1A04",
"-  c #27180B",
";  c #331400",
":  c #3C1601",
">  c #331B04",
",  c #3D1B01",
"<  c #351F0C",
"1  c #2A1C11",
"2  c #3A2609",
"3  c #362518",
"4  c #3C2D2A",
"5  c #352F3A",
"6  c #471504",
"7  c #421C01",
"8  c #4B1E01",
"9  c #541801",
"0  c #671B01",
"q  c #711A00",
"w  c #442305",
"e  c #4B2302",
"r  c #452905",
"t  c #422C0C",
"y  c #482908",
"u  c #542501",
"i  c #5B2401",
"p  c #532903",
"a  c #5C2B02",
"s  c #552808",
"d  c #58320A",
"f  c #452D15",
"g  c #512C16",
"h  c #4B3615",
"j  c #553815",
"k  c #662705",
"l  c #632B02",
"z  c #6C2C02",
"x  c #772802",
"c  c #752C01",
"v  c #673506",
"b  c #743302",
"n  c #7B3302",
"m  c #773B07",
"M  c #673A15",
"N  c #763419",
"B  c #473324",
"V  c #5E3920",
"C  c #513330",
"Z  c #653F29",
"A  c #64343F",
"S  c #5E410F",
"D  c #5D421C",
"F  c #78450B",
"G  c #684418",
"H  c #794716",
"J  c #715017",
"K  c #574336",
"L  c #654A26",
"P  c #754425",
"I  c #6B5227",
"U  c #775629",
"Y  c #664C37",
"T  c #76553A",
"R  c #7E622D",
"E  c #776233",
"W  c #3A3546",
"Q  c #3D3964",
"!  c #483D45",
"~  c #584848",
"^  c #554957",
"/  c #6A524F",
"(  c #675755",
")  c #7F675F",
"_  c #554D69",
"`  c #5B566B",
"'  c #5C5876",
"]  c #59557F",
"[  c #655B6B",
"{  c #765A67",
"}  c #635D75",
"|  c #6A616D",
" . c #776669",
".. c #6C647B",
"X. c #756B7A",
"o. c #831F02",
"O. c #862902",
"+. c #972C02",
"@. c #833500",
"#. c #8A3302",
"$. c #823B02",
"%. c #8C3B03",
"&. c #8C3B09",
"*. c #973B03",
"=. c #963B12",
"-. c #A43D02",
";. c #A73B08",
":. c #853C22",
">. c #874306",
",. c #994505",
"<. c #87510A",
"1. c #985707",
"2. c #8B4717",
"3. c #964418",
"4. c #865516",
"5. c #965914",
"6. c #A34A05",
"7. c #AA4805",
"8. c #B54B06",
"9. c #A95409",
"0. c #B75B08",
"q. c #A4471B",
"w. c #A95C1C",
"e. c #B15313",
"r. c #996310",
"t. c #A9650A",
"y. c #BC690A",
"u. c #B9730A",
"i. c #BB6716",
"p. c #B17417",
"a. c #8D4829",
"s. c #845327",
"d. c #975728",
"f. c #835530",
"g. c #A94824",
"h. c #AD5928",
"j. c #AF5B2D",
"k. c #986529",
"l. c #876936",
"z. c #946E30",
"x. c #9D6A37",
"c. c #A76B25",
"v. c #B96927",
"b. c #AA7527",
"n. c #AE6F31",
"m. c #BB6734",
"M. c #B57839",
"N. c #C04A09",
"B. c #C2690C",
"V. c #C4740C",
"C. c #C66718",
"Z. c #C67717",
"A. c #C4642B",
"S. c #C87B23",
"D. c #C36F34",
"F. c #C37637",
"G. c #825D51",
"H. c #876B41",
"J. c #946842",
"K. c #926B4D",
"L. c #96784B",
"P. c #957A58",
"I. c #AE744A",
"U. c #BE7541",
"Y. c #84716E",
"T. c #C07B4E",
"R. c #BF8714",
"E. c #B38E32",
"W. c #C78518",
"Q. c #CB981C",
"!. c #CBA719",
"~. c #C88427",
"^. c #CF9027",
"/. c #C9853C",
"(. c #C89437",
"). c #D1A731",
"_. c #9A8357",
"`. c #AF8B4F",
"'. c #948770",
"]. c #99877B",
"[. c #B09469",
"{. c #BBA36A",
"}. c #B5A67E",
"|. c #C88847",
" X c #D59F46",
".X c #C7855B",
"XX c #CB9C59",
"oX c #D4AE54",
"OX c #CF926C",
"+X c #C5A874",
"@X c #CFB374",
"#X c #E0AC64",
"$X c #D1C27D",
"%X c #E4C563",
"&X c #595580",
"*X c #6B6888",
"=X c #736B83",
"-X c #736F8A",
";X c #74728F",
":X c #6E6D93",
">X c #726E92",
",X c #747295",
"<X c #7C7796",
"1X c #74759C",
"2X c #7B7A9C",
"3X c #7577A0",
"4X c #7678A2",
"5X c #81788A",
"6X c #827F98",
"7X c #958987",
"8X c #8F8B95",
"9X c #928C92",
"0X c #B2A689",
"qX c #ADA7A3",
"wX c #C8B88B",
"eX c #D0B991",
"rX c #D7C999",
"tX c #CCC0A1",
"yX c #E5D9B0",
"uX c #EBE4BA",
"iX c #F0E4B5",
"pX c #E1DED1",
"aX c #F1EAC8",
"sX c #F2EED6",
"dX c #FBF7DD",
"fX c #FFFFE7",
"gX c #FFFFF4",
"hX c #FFFFFE",
/* pixels */
"4X4X4X4X4X4X4X4X4X4X4X] 4X4X4X4X4X4X4X4X4X4X4X4X4X4X4X4X4X4X4X4X4X4X4X4X4X4X4X4X4X4X4X4X4X4X4X4X4X4X4X4X4X4X4X4X4X4X4X4X4X4X4X4X",
"4X4X4X4X4X4X4X4X4X4X4X] 4X4X4X4X4X4X4X4X4X4X4X4X4X4X4X4X4X4X4X4X4X4X4X4X4X4X4X4X4X4X4X4X4X4X4X4X4X4X4X4X4X4X4X4X4X4X4X4X4X4X4X4X",
"4X4X4X4X4X4X4X4X4X4X4X] 4X4X4X4X4X4X4X4X4X4X4X4X4X4X4X4X4X4X4X4X4X4X4X4X4X4X4X4X4X4X4X4X4X4X4X4X4X4X4X4X4X4X4X4X4X4X4X4X4X4X4X4X",
"4X4X4X4X4X4X4X4X4X4X4X] 4X4X4X4X4X4X4X4X4X4X4X4X4X4X4X4X4X4X4X4X4X4X4X4X4X4X4X4X4X4X4X4X4X4X4X4X4X4X4X4X4X4X4X4X4X4X4X4X4X4X4X4X",
"4X4X4X4X4X4X4X4X4X4X4X] 4X4X4X4X4X4X4X4X4X4X4X4X4X4X4X4X4X4X4X4X4X4X4X4X4X4X4X4X4X4X4X4X4X4X4X4X4X4X4X4X4X4X4X4X4X4X4X4X4X4X4X4X",
"4X4X4X4X4X4X4X4X4X4X4X] 4X4X4X4X4X4X4X4X4X4X4X4X4X4X4X4X4X4X4X4X4X4X4X4X4X4X4X4X4X4X4X4X4X4X4X4X4X4X4X4X4X4X4X4X4X4X4X4X4X4X4X4X",
"4X4X4X4X4X4X4X4X4X4X4X] 4X4X4X4X4X4X4X4X4X4X4X4X4X4X4X4X4X4X4X4X4X4X4X4X4X4X4X4X4X4X4X4X4X4X4X4X4X4X4X4X4X4X4X4X4X4X4X4X4X4X4X4X",
"4X4X4X4X4X4X4X4X4X4X4XQ 4X4X4X4X4X4X4X4X4X4X4X4X4X4X4X4X4X4X4X4X4X4X4X4X4X4X4X4X4X4X4X4X4X4X4X4X4X4X4X4X4X4X4X4X4X4X4X4X4X4X4X4X",
"4X4X4X4X4X4X4X4X4X4X4XQ 4X4X4X4X4X4X4X4X4X4X4X4X4X4X4X4X4X4X4X4X4X4X4X4X4X4X4X4X4X4X4X4X4X4X4X4X4X4X4X4X4X4X4X4X4X4X4X4X4X4X4X4X",
"4X4X4X4X4X4X4X4X4X4X4XQ 4X4X4X4X4X4X4X4X4X4X4X4X4X4X4X4X4X4X4X4X4X4X4X4X4X4X4X4X4X4X4X4X4X4X4X4X4X4X4X4X4X4X4X4X4X4X4X4X4X4X4X4X",
"4X4X4X4X4X4X4X4X4X4X4X] 4X4X4X4X4X4X4X4X4X4X4X4X4X4X4X4X4X4X4X4X4X4X4X4X4X4X4X4X4X4X4X4X4X4X4X4X4X4X4X4X4X4X4X4X4X4X4X4X4X4X4X4X",
"4X4X4X4X4X4X4X4X4X4X4X] 4X4X4X4X4X4X4X4X4X4X4X4X4X4X4X4X4X4X4X4X4X4X4X4X4X4X4X4X4X4X4X4X4X4X4X4X4X4X4X4X4X4X4X4X4X4X4X4X4X4X4X4X",
"&X4X4X4X4X4X4X4X4X4X4X] 4X4X4X4X4X4X4X4X4X4X4X4X4X4X4X4X4X4X4X4X4X4X4X4X4X4X4X4X4X4X4X4X4X4X4X4X4X4X4X4X4X4X4X4X4X4X4X4X4X4X4X4X",
"4X4X4X4X4X4X4X4X4X4X4X] 4X4X4X4X4X4X4X4X4X4X4X4X4X4X4X4X4X4X4X4X4X4X4X4X4X4X4X4X4X4X4X4X4X4X4X4X4X4X4X4X4X4X4X4X4X4X4X4X4X4X4X4X",
"Q Q &X&X&X&X&X&X&X&X&X] &X&X&X&X4X4X4X4X4X4X4X4X4X4X4X4X4X4X4X4X4X4X4X4X4X4X4X4X4X4X4X4X4X4X4X4X4X4X4X4X4X4X4X4X4X4X4X4X4X4X4X4X",
"4X4X4X4X4X4X4X4X4X4X4XQ 4X4X4X4X4X4X4X4X4X4X4X4X4X4X4X4X4X4X4X4X4X4X4X4X4X4X4X4X4X4X4X4X4X4X4X4X4X4X4X4X4X4X4X4X4X4X4X4X4X4X4X4X",
"4X4X4X4X4X4X4X4X4X4X4X&X4X4X4X4X4X4X4X4X4X4X4X4X4X4X4X2X2X4X2X4X4X4X4X4X4X4X4X4X4X4X4X4X4X4X4X4X4X4X4X4X4X4X4X4X4X4X4X] 4X4X4X4X",
"4X4X4X4X4X4X4X4X4X4X4X&X4X4X4X4X4X4X4X4X4X4X2X8X8X9X7XX.Y.) )  . .X.5X5X6X2X4X4X4X4X4X4X4X4X4X3X4X4X4X4X4X4X4X4X4X4X4X] 4X4X4X4X",
"4X4X4X4X4X4X4X4X4X4X4X&X4X4X4X4X<X9XqXtXpXsXaXaX$XR G j J 4.r r > 2 2 t f B K Y (  .-X2X4X4X3X3X4X4X4X4X4X4X4X4X4X4X4X] 4X4X4X4X",
"4X4X4X4X4X4X4X4X4X4X4X&X1X=X'.0XpXdXuXrX[.l.U j p p * * * & O @ O * . o + O X + & w s j T  .;X3X4X4X4X4X4X4X4X4X4X4X4X] 4X4X4X4X",
"4X4X4X4X4X4X4X4X2X3X:X( _.{.@X@X`.k.F >.1.r.1.a e m p d d e F # + , w o 2 a ; , w * ; 7 ; y M / X.1X3X4X4X4X4X4X4X4X4X&X4X4X4X4X",
"4X4X4X4X4X4X4X4X2X[ R E.E.4.a a i z @.*.u.9.R.r.s v 5.H H m p.d l r F , & S <.; l b z z 8 + , 8 t Y =X4X4X4X4X4X4X4X4X&X4X4X4X4X",
"4X4X4X4X4X4X4X1X! U b.<.a p l n *.9.,.,.E.b.XX`.z.m +Xx.s.x.2.P 4.k.M.5.4.t.t.F z t.-.x z s : ; @ w h [ 4X4X4X4X4X4X4X&X4X4X4X4X",
"4X4X4X4X4X3X3X! S 4.m n n v 6.y.y.Q.!.!.).9.s.J s , 7 7 * * 7 t # & & - d v 1.<.>.W.V.,.i n 6 ; * * & S [ 4X4X4X4X4X4X4X4X4X4X4X",
"4X4X4X4X4X4X' > G m %.%.*.9.B.!.!.!.V.0.7.@.k u e 8 , , , , 7 # # + + O e e p v l u.u.u.%.*.9 & ; & @ t j >X4X4X4X4X4X4X4X4X4X4X",
"4X4X4X4X3X2XC y p >.*.*.0.W.B.B.y.y.y.t.*.*.@.c a e 8 8 7 , , , ; ; ; ; , a > 7 e @.*.*.b *.&.7 , & O 2 G ~ 4X4X4X4X4X4X4X4X4X4X",
"4X4X4X4X4X,X- > y m 8.y.B.V.8.8.0.0.9.1.n v V K ~ ^ ` ` ..' ' ` ` ^ ! 5 1 - # # ; z b k u c x l ; * - D R Y 1X3X4X4X4X4X4X4X4X4X",
"4X4X4X4X1X*X$ O 2 d 1.B.0.8.7.6.8.,.s./ ..,X3X4X4X4X4X4X4X4X4X4X3X4X4X4X3X*X` W 1 $ * * : ; , # 8 7 j z.R j <X4X4X4X4X4X4X4X4X4X",
"4X4X4X4X4X..; 8 e p y m >.n a M { >X4X4X4X4X4X4X4X4X4X4X4X4X4X4X4X4X4X4X4X4X4X4X1X' W @ $ * ; * t l.{.@XD H -X4X4X4X4X4X4X4X4X4X",
"4X4X4X4X4X} 8 , @ y a u w t ^ 1X4X1X4X4X4X4X4X4X4X4X3X3X4X4X4X4X4X4X4X4X4X4X4X4X4X4X3X1X^ t G L.eXyXrXL.j b.<X2X4X4X4X4X4X4X4X4X",
"4X4X4X4X4X-Xi 8 X = = e m M M Y ( } *X1X4X3X4X4X4X4X4X2X4X4X4X4X4X4X4X4X3X1X4X4X3X2X;X].0XeXsXgXgXsX+X, k.b.2X4X4X4X4X4X4X4X4X4X",
"4X4X4X4X4X>Xs b , . ; : 8 v a y d j D K ~ ( | ..-X,X,X1X2X1X3X4X1X,X,X;X..X.].0XwXtXyXfXhXhXgXdXiX+XG <.R.c.2X4X4X4X4X4X4X4X4X4X",
"4X4X4X4X4X4Xg x %.F s u # ; > > > = 2 h D I E I I U E l.H.L.P._._.[.{.+XrXiXdXgXhXhXhXhXhXfXfXiXz.G c.Z.i.E.4X4X4X4X4X4X4X4X4X4X",
"4X4X4X4X4X6XA q -.6.m i     . . . O O @ O @ f j h j 3 t h h L L U H.0X}.uXsXfXsXgXgXfXdXeXL.b.s.v b.Z.7.W.[.4X4X4X4X4X4X4X4X4X4X",
"4X4X4X4X4X4X{ g.3.b >.,.u & o . 3 . X O O O o o @ O * t t f L.L.T D h 2 D {.iXyX@X`.l.I p u m 9.i.Z.7.i.%X7X4X4X4X4X4X4X4X4X4X4X",
"4X4X4X4X4X4X:XN h.2.b e.@.a i m j X X   @ O O o @ 3 @ 2 h t `.I 3 h = = 2 E '.I 2 f.z l >.9.B.B.Z.B.W.oXoX6X4X4X4X4X4X4X4X4X4X4X",
"4X4X4X4X4X4X4XA g.q.=.w.e.=.#.i.v u w M Y o O . 4 K X = < + 2 2 # + + * * # $ : s.C.7.9.0.y.y.C./.).W.~.P.4X4X4X4X4X4X4X4X4X4X4X",
"4X4X4X4X4X4X4X*X% 6 +.~.^.h.A.c.e a z S.M u 7 # ) 1 + @ # & & & + * > ; L [.%.n n.*.*.7.e.m.E.F.~.Q.Q.(.6X4X4X4X4X4X4X4X4X4X4X4X",
"4X4X4X4X4X4X4X4X^ % o.;.h.(.D.c.N k 3.~.v i 9 N P.$ * > , > ; w J.T 7 u f.#X=.P M.e.*.3.m.|.oX#X^.y.).7X4X4X4X4X4X4X4X4X4X4X4X4X",
"4X4X4X4X4X4X4X4X4X^ 0 q 9 #.m. Xa.=.M.XXj x.4.`.L.M d a.d.N P a.:.3.s z f./.7.`.#Xi.&.%./.^.Z.^.V.~.].4X4X4X4X4X4X4X4X4X4X4X4X4X",
"4X4X4X4X4X4X4X4X4X4X^ 6 % 9 o.9.k +.A. X|.T.T..XOXeX.X.Xm.j.U.j.I.U.J.x.j.OX.XoX%XS.N.-.7.-.%.p.(.7X4X4X4X4X4X4X4X4X4X4X4X4X4X4X",
"4X4X4X4X4X4X4X4X4X4X4XW B $ O.0 : 9 *.v.o.:.x.q.g.T.m.D.q.I.a.k m.T.A.A.q d.e.+.;.7.*.+.$.F 5.U.9X4X4X4X4X4X4X4X4X4X4X4X4X4X4X4X",
"4X4X4X4X4X4X4X4X4X4X4X&X3X] C $ # % =.M 6 G.N x q q 0 q 9 =.g.q.8.O.O.#.@.x #.b c @.l m 2.d.Y.4X4X4X4X4X4X4X4X4X4X4X4X4X4X4X4X4X",
"4X4X4X4X4X4X4X4X4X4X4X&X4X4X:X' 5 $ n = 6 K.9 i z i u i l x z x z l l z l l l c v >.H T { :X3X4X4X4X4X4X4X4X4X4X4X4X4X4X4X4X4X4X",
"&X4X4X4X4X4X4X4X4X4X4X&X4X4X4X4X4X:X_ W C g 6 6 w i 8 9 c c x z i b @.@.%.n 2.U G.Y.2X4X4X4X4X4X4X4X4X4X4X4X4X4X4X4X4X4X4X4X4X4X",
"4X4X4X4X4X4X4X4X4X4X4XQ 4X4X4X4X4X4X3X4X,X:X*X` ^ C B f g g M g B Z / (  .X.1X4X4X4X4X4X4X4X4X4X4X4X4X4X4X4X4X4X4X4X4X4X4X4X4X4X",
"&X&X&X&X&X&X&X&X&X&X&XQ &XQ &X&X&X&X&X&XQ &X&X&XQ Q Q Q ] 1X1X3X3X4X4X4X4X4X4X4X4X4X4X4X4X4X4X4X4X4X4X4X4X4X4X4X4X4X4X4X4X4X4X4X",
"4X4X4X4X4X4X4X4X4X4X4X4X4X4X4X4X4X4X4X4X3X3X3X3X4X4X4X4X4X4X4X4X3X4X4X4X4X4X4X4X4X4X4X4X4X4X4X4X4X4X4X4X4X4X4X4X4X4X4X4X4X4X4X4X",
"4X4X4X4X4X4X4X4X4X4X4X4X4X4X4X4X4X4X4X4X4X4X4X4X4X4X4X&X4X4X4X4X4X4X4X4X4X4X4X4X4X4X4X4X4X4X4X4X4X4X4X4X4X4X4X4X4X4X4X4X4X4X4X4X",
"4X4X4X4X4X4X4X4X4X4X4X4X4X4X4X4X4X4X4X4X4X4X4X4X4X4X4X&X4X4X4X4X4X4X4X4X4X4X4X4X4X4X4X] 4X4X4X4X4X4X4X4X4X4X4X4X4X4X4X4X4X4X4X4X",
"4X4X4X4X4X4X4X4X4X4X4X4X4X4X4X4X4X4X4X4X4X4X4X4X4X4X4X&X4X4X4X4X4X4X4X4X4X4X4X4X4X4X4X] 4X4X4X4X4X4X4X4X4X4X4X4X4X4X4X4X4X4X4X4X",
"4X4X4X4X4X4X4X4X4X4X4X4X4X4X4X4X4X4X4X4X4X4X4X4X4X4X4X&X4X4X4X4X4X4X4X4X4X4X4X4X4X4X4X&X4X4X4X4X4X4X4X4X4X4X4X4X4X4X4X4X4X4X4X4X",
"4X4X4X4X4X4X4X4X4X4X4X4X4X4X4X4X4X4X4X4X4X4X4X4X4X4X4X&X4X4X4X4X4X4X4X4X4X4X4X4X4X4X4X] 4X4X4X4X4X4X4X4X4X4X4X4X4X4X4X4X4X4X4X4X",
"4X4X4X4X4X4X4X4X4X4X4X4X4X4X4X4X4X4X4X4X4X4X4X4X4X4X4X&X4X4X4X4X4X4X4X4X4X4X4X4X4X4X4X] 4X4X4X4X4X4X4X4X4X4X4X4X4X4X4X4X4X4X4X4X",
"4X4X4X4X4X4X4X4X4X4X4X4X4X4X4X4X4X4X4X4X4X4X4X4X4X4X4X&X4X4X4X4X4X4X4X4X4X4X4X4X4X4X4XQ 4X4X4X4X4X4X4X4X4X4X4X4X4X4X4X4X4X4X4X4X",
"4X4X4X4X4X4X4X4X4X4X4X4X4X4X4X4X4X4X4X4X4X4X4X4X4X4X4X&X4X4X4X4X4X4X4X4X4X4X4X4X4X4X4X] 4X4X4X4X4X4X4X4X4X4X4X4X4X4X4X4X4X4X4X4X",
"4X4X4X4X4X4X4X4X4X4X4X4X4X4X4X4X4X4X4X4X4X4X4X4X4X4X4X&X4X4X4X4X4X4X4X4X4X4X4X4X4X4X4X&X4X4X4X4X4X4X4X4X4X4X4X4X4X4X4X4X4X4X4X4X",
"4X4X4X4X4X4X4X4X4X4X4X4X4X4X4X4X4X4X4X4X4X4X4X4X4X4X4X&X4X4X4X4X4X4X4X4X4X4X4X4X4X4X4X&X4X4X4X4X4X4X4X4X4X4X4X4X4X4X4X4X4X4X4X4X",
"4X4X4X4X4X4X4X4X4X4X4X4X4X4X4X4X4X4X4X4X4X4X4X4X4X4X4X&X4X4X4X4X4X4X4X4X4X4X4X4X4X4X4XQ 4X4X4X4X4X4X4X4X4X4X4X4X4X4X4X4X4X4X4X4X",
"4X4X4X4X4X4X4X4X4X4X4X4X4X4X4X4X4X4X4X4X4X4X4X4X4X4X4X&X4X4X4X4X4X4X4X4X4X4X4X4X4X4X4XQ 4X4X4X4X4X4X4X4X4X4X4X4X4X4X4X4X4X4X4X4X",
"4X4X4X4X4X4X4X4X4X4X4X4X4X4X4X4X4X4X4X4X4X4X4X4X4X4X4XQ 4X4X4X4X4X4X4X4X4X4X4X4X4X4X4XQ 4X4X4X4X4X4X4X4X4X4X4X4X4X4X4X4X4X4X4X4X",
"4X4X4X4X4X4X4X4X4X4X4X4X4X4X4X4X4X4X4X4X4X4X4X4X4X4X4XQ &X&XQ &X&X&XQ Q &X&XQ Q Q Q Q Q &XQ Q Q Q Q &X&X&X4X4X4X4X4X4X4X4X4X4X4X",
"4X4X4X4X4X4X4X4X4X4X4X4X4X4X4X4X4X4X4X4X4X4X4X4X4X4X4XQ 4X4X4X4X4X4X4X4X4X4X4X4X&X&X&XQ 4X4X4X4X4X4X4X4X4X4X4X4X4X4X4X4X4X4X4X4X",
"4X4X4X4X4X4X4X4X4X4X4X4X4X4X4X4X4X4X4X4X4X4X4X4X4X4X4X&X4X4X4X4X4X4X4X4X4X4X4X4X4X4X4XQ 4X4X4X4X4X4X4X4X4X4X4X4X4X4X4X4X4X4X4X4X"
};
