/* XPM */
static char *f414f9f471614072cff868358fffba40VGDkHKk5WCWtpetk[] = {
/* columns rows colors chars-per-pixel */
"64 64 15 1 ",
"  c #21110D",
". c #082B0C",
"X c #342319",
"o c #503625",
"O c #114517",
"+ c #347B2C",
"@ c #755338",
"# c #2B2B4C",
"$ c #3A3A5A",
"% c #3D3964",
"& c #494C6C",
"* c #59557F",
"= c #53A03B",
"- c #595580",
"; c #7678A2",
/* pixels */
";;;;;;;;;;;;;;*;;;;;;;;;;;;;;;;;;;;;;;;;;;;;;;;;;;;;;;;;;;;;;;;;",
";;;;;;;;;;;;;;*;;;;;;;;;;;;;;;;;;;;;;;;;;;;;;;;;;;;;;;;;;;;;;;;;",
";;;;;;;;;;;;;;*;;;;;;;;;;;;;;;;;;;;;;;;;;;;;;;;;;;;;;;;;;;;;;;;;",
";;;;;;;;;;;;;;*;;;;;;;;;;;;;.....;;;;;;;;;;;;;;;;;;;;;;;;;;;;;;;",
";;;;;;;;;;;;;;*;;;;;;;;;;;;.+===+..;;....;;;;;;;;;;;;;;;;;;;;;;;",
";;;;;;;;;;;;;;*;;;;;;....;.+======+..+===.;;;;;;;;;;;;;;;;;;;;;;",
";;;;;;;;;;;;;;%;;;;;.+==+.+=========+=====....;;;;;;;;;;;;;;;;;;",
";;;;;;;;;;;;;;%;;;;.+=====+=========+=====.==+.;;;;;;;;;;;;;;;;;",
";;;;;;;;;;;;;;%;;;;.+======+==================+.;;;;;;;;;;;;;;;;",
";;;;;;;;;;;;;;*;...OO=========================+.;;;;;;;;;;;;;;;;",
";;;;;;;;;;;;;;*.++O==+========================OO.;;;;;;;;;;;;;;;",
"----;;;;;;;;;;.+==+==========================O==.;;;;;;;;;;;;;;;",
";;;;;;;;;;;;;;.=================================+.;;;;;;;;;;;;;;",
";-%%%--------.+=======================+=========+.;;;;;;;;;;;;;;",
";;;;;;;;;;;;.+++==============++O+=+O+===========+.;;;;;;;;;;;;;",
";;;;;;;;;;;;.+++================+OOO++===========+.;;;;;;;;;;;-;",
";;;;;;;;;;;.+++===================+O+=============.;;;;;;;;;;;-;",
";;;;;;;;;;;.+=+====================+==============+.;;;;;;;;;;-;",
";;;;;;;;;;;.===+==O================================.;;;;;;;;;;-;",
";;;;;;;;;;;.+==++OO================================.;;;;;;;;;;-;",
";;;;;;;;;;;.++++OO+===============================+.;;;;;;;;;;-;",
";;;;;;;;;;;;.OOOO+++==============================.;;;;;;;;;;;-;",
";;;;;;;;;;;.OO+O+==+=============================+.;;;;;;;;;;;;;",
";;;;;;;;;;.O==+O+===+=============================+.;;;;;;;;;;;;",
";;;;;;;;;;.+==+O++================================+..;;;;;;;;;;;",
";;;;;;;;;.+==++OO+============================+====+.;;;;;;;;;;;",
";;;;;;;;;.+====+O+======+====================++O===+.;;;;;;;;;;;",
";;;;;;;;;.+=====++======+O===================OOOO+++.;;;;;;;;;;;",
";;;;;;;;;.O+====+OO====+++OO+====++===========O==++.;;;;;;;;;;;;",
";;;;;;;;;;.O++====OO==+====OO+==+++===========+===+.;;;;;;;;;;;;",
";;;;;;;;;;.OOOO+===OO++=====+O++++=============+==++.;;;;;;;;;;;",
";;;;;;;;;;;.O+=O+==+++=======+++===============+++++.;;;;;;;;;;;",
";;;;;;;;;;;.O==++++O+=========+================++++O.;;;;;;;;;;;",
";;;;;;;;;;.OO===+OOO+==+=====++============+==O++++OO;;;;;;;;;;;",
";;;;;;;;;;.O+O++OO=+O+++=====+++============OO+++++OO;;;;;;;;;;;",
";;;;;;;;;;.+==OOO====++=====+==++=+==O===+==O==+++OOO;;;;;;;;;;;",
";;;;;;;;;;.+==+OO=====+==+=========OO+==+=+++===+++OO;;;;;;;;;;;",
";;;;;;;;;;.O++OOOO=+==+++++=========O+++===+++==++++O;;;;;;;;;;;",
";;;;;;;;;;;.OOOO+OOO+++++++++=======+++====++++++O++.;;;;;;;;;;;",
";;;;;;;;;;;;.OO+==O++++O++==+=======+++++==O++O++OOO.;;;;;;;;;;;",
";;;;;;;;;;;;.O.O==+=+++OO===+O=======++O++O++++OOOO.;;;;;;;;;;;;",
";;;;;;;;;;;;;...O+===+=+O==++O====+==+OOOOO++++OOO.;;;;;;;;;;;;;",
";;;;;;;;;;;;;;.OOO==O===+++++O+==++++++O.OO++OOO..;;;;;;;;;;;;;;",
";;--;;;;;;;;;;.OOOOO+===+O++O+++++++O++O.OOOOOOO.;;;;;;;;;;;;;;;",
";;;;;;;;;;;;;;%.OO.O++++O.OOO++++O++OOOO...OOOOO.;;;;;;;;;;;;;;;",
";;------------%-...OOOOOO..OO+++OOOOOOO......OO.;;;;;;;;;;;;;;;;",
";;;;;;;;;;;;;;;;;;.OOOOO...OOOOOO.OOOO.........;;;;;;;;;;;;;;;;;",
";;;;;;;;;;;;;;;;;;;.........OOOO......X &&..&&&&;;;;;;;;;;;;;;;;",
";;;;;;;;;;;;;;;;;;;;&&  XXo.....XXXXXXX &&&&&&$&&;;;;;;;;;;;;;;;",
";;;;;;;;;;;;;;;;;;&&& @oXoooXXooXXXXoXXo &&&&&$&&&;;;;;;;;;;;;;;",
";;;;;;;;;;;;;;;;;&&& @@XXoXoX@@ooXXooXX@ &&&&&$&&&;;;;;;;;;;;;;;",
";;;;;;;;;;;;;;;;&&&& @ X@ooX@@@@oXo@ooXo@ &&&&$&&&&;;;;;;;;;;;;;",
";;;;;;;;;;;;;;;&&&&&  X@@@oX@@@@ooo@@oXXoX &&&$&&&&;;;;;;;;;;;;;",
";;;;;;;;;;;;;;;&&&&&& @@ooo o@ooo@o@@oXX@@X &&#&&&&;;;;;;;;;;;;;",
";;;;;;;;;;;;;;;&&&&& @@@@oX @@@o@@@@@oXXo@@ &&$&&&&;;;;;;;;;;;;;",
";;;;;;;;;;;;;;;&&&&& @@@@o o@@@o@X@@@@o Xo@ &&$&&&&;;;;;;;;;;;;;",
";;;;;;;;;;;;;;;&&&&& @@@oX @@@@@XXo@o@@  oo &&$&&&&;;;;;;;;;;;;;",
";;;;;;;;;;;;;;;&&&&& oooX o@@@o@X Xo@@@@ &&&&&#&&&&;;;;;;;;;;;;;",
";;;;;;;;;;;;;;;&&&&&&&&&& @@@oooX Xo@@@@@ &&&&#&&&;;;;;;;;;;;;;;",
";;;;;;;;;;;;;;;;&&&&&&&&& @@@ooX   oo@@@o &&&&#&&&;;;;;;;;;;;;;;",
";;;;;;;;;;;;;;;;&&&&&&&&& oooooX$#$ ooooo #####$#%%%%---;;;;;;;;",
";;;;;;;;;;;;;;;;;&&&&&&&&&&&&&#&&&&&&&&&&&&$$$#&&;;;;;;;;;;;;;;;",
";;;;;;;;;;;;;;;;;&&&&&&&&&&&&&$&&&&&&&&&&&&&&&#&;;;;;;;;;;;;;;;;",
";;;;;;;;;;;;;;;;;;&&&&&&&&&&&&$&&&&&&&&&&&&&&&#;;;;;;;;;;;;;;;;;"
};
