/* XPM */
static char *eb5fc4c2a3a84f80c243b1d5e68c9900ESQ9Q3eN4liOD7xJ[] = {
/* columns rows colors chars-per-pixel */
"64 64 4 1 ",
"  c #3D3964",
". c #59557F",
"X c #595580",
"o c #7678A2",
/* pixels */
"ooooooooooXooooooooooooooo.ooooooooooooooooooooooooooooooooooooo",
"ooooooooooXooooooooooooooo.ooooooooooooooooooooooooooooooooooooo",
"ooooooooooXooooooooooooooo.ooooooooooooooooooooooooooooooooooooo",
"oooooooooo ooooooooooooooo ooooooooooooooooooooooooooooooooooooo",
"oooooooooo ooooooooooooooo ooooooooooooooooooooooooooooooooooooo",
"oooooooooo ooooooooooooooo ooooooooooooooooooooooooooooooooooooo",
"ooooooooooXooooooooooooooo.ooooooooooooooooooooooooooooooooooooo",
"ooooooooooXooooooooooooooo.ooooooooooooooooooooooooooooooooooooo",
"oooooooooooXXXXXoooooooooo.ooooooooooooooooooooooooooooooooooooo",
"oooooooooooooooooooooooooo.ooooooooooooooooooooooooooooooooooooo",
"oooooooooooooX   XXXXXXXXX.XXXXooooooooooooooooooooooooooooooooo",
"oooooooooooooooooooooooooo ooooooooooooooooooooooooooooooooooooo",
"oooooooooooooooooooooooooo.ooooooooooooooooooooooooooooooooooooo",
"oooooooooooooooooooooooooo.ooooooooooooooooooooooooooooooooooooo",
"oooooooooooooooooooooooooo.ooooooooooooooooooooooooooooooooooooo",
"oooooooooooooooooooooooooo.ooooooooooooooooooooooooooooooooooooo",
"oooooooooooooooooooooooooo.ooooooooooooooooooooooooooooooooooooo",
"oooooooooooooooooooooooooo.ooooooooooooooooooooooooooooooooooooo",
"oooooooooooooooooooooooooo.ooooooooooooooooooooooooooooooooooooo",
"ooooooooooooooooooooooooooooooooooooooooooXooooooooooooooooooooo",
"oooooooooooooooooooooooooooooooooooooooooooooooooooooooooooooooo",
"oooooooooooooooooooooooooooooooooooooooooooooooooooooooooooooooo",
"oooooooooooooooooooooooooooooooooooooooooooooooooooooooooooooooo",
"oooooooooooooooooooooooooooooooooooooooooooooooooooooooooooooooo",
"oooooooooooooooooooooooooooooooooooooooooooooooooooooooooooooooo",
"oooooooooooooooooooooooooooooooooooooooooooooooooooooooooooooooo",
"oooooooooooooooooooooooooooooooooooooooooooooooooooooooooooooooo",
"oooooooooooooooooooooooooooooooooooooooooooooooooooooooooooooooo",
"oooooooooooooooooooooooooooooooooooooooooooooooooooooooooooooooo",
"oooooooooooooooooooooooooooooooooooooooooooooooooooooooooooooooo",
"oooooooooooooooooooooooooooooooooooooooooooooooooooooooooooooooo",
"oooooooooooooooooooooooooooooooooooooooooooooooooooooooooooooooo",
"oooooooooooooooooooooooooooooooooooooooooooooooooooooooooooooooo",
"oooooooooooooooooooooooooooooooooooooooooooooooooooooooooooooooo",
"oooooooooooooooooooooooooo.oooooooooooooooXooooooooooooooooooooo",
"oooooooooooooooooooooooooo oooooooooooooooXooooooooooooooooooooo",
"oooooooooooooooooooooooooo oooooooooooooooXooooooooooooooooooooo",
"oooooooooooooooooooooooooo oooooooooooooooXooooooooooooooooooooo",
"oooooooooooooooooooooooooo.oooooooooooooooXooooooooooooooooooooo",
"oooooooooooooooooooooooooo.oooooooooooooooXooooooooooooooooooooo",
"ooooooooooooooXXoooooooooo.ooooooooooooXXX Xoooooooooooooooooooo",
"oooooooooooooooooooooooooo oooooooooooooooXooooooooooooooooooooo",
"ooooooooooooooXXXXXXXXXXXX X XXXXXX XXX    Xoooooooooooooooooooo",
"oooooooooooooooooooooooooooooooooooooooooooooooooooooooooooooooo",
"ooooooooooooooooooooooooooooooooooooooooooXooooooooooooooooooooo",
"ooooooooooooooooooooooooooooooooooooooooooXooooooooooooooo.ooooo",
"ooooooooooooooooooooooooooooooooooooooooooXooooooooooooooo.ooooo",
"ooooooooooooooooooooooooooooooooooooooooooXooooooooooooooo.ooooo",
"ooooooooooooooooooooooooooooooooooooooooooXooooooooooooooo.ooooo",
"ooooooooooooooooooooooooooooooooooooooooooXooooooooooooooo.ooooo",
"ooooooooooooooooooooooooooooooooooooooooooXooooooooooooooo ooooo",
"ooooooooooooooooooooooooooooooooooooooooooXooooooooooooooo.ooooo",
"ooooooooooooooooooooooooooooooooooooooooooXooooooooooooooo.ooooo",
"ooooooooooooooooooooooooooooooooooooooooooXooooooooooooooo.ooooo",
"ooooooooooooooooooooooooooooooooooooooooooXooooooooooooooo ooooo",
"ooooooooooooooooooooooooooooooooooooooooooXooooooooooooooo ooooo",
"oooooooooooooooooooooooooooooooooooooooooo ooooooooooooooo ooooo",
"oooooooooooooooooooooooooooooooooooooooooo XX XXX  XX      X    ",
"oooooooooooooooooooooooooooooooooooooooooo ooooooooooooXXX ooooo",
"ooooooooooooooooooooooooooooooooooooooooooXooooooooooooooo ooooo",
"ooooooooooooooooooooooooooooooooooooooooooXooooooooooooooo ooooo",
"ooooooooooooooooooooooooooooooooooooooooooXooooooooooooooo.ooooo",
"oooooooooooooooooooooooooo.oooooooooooooooXooooooooooooooo.ooooo",
"ooooooooooooooooooooooooooooooooooooooooooXooooooooooooooo.ooooo"
};
